<svg xmlns="http://www.w3.org/2000/svg" xmlns:xlink="http://www.w3.org/1999/xlink" viewBox="0 0 250 139.979">
  <defs>
    <style>
      .cls-1 {
        fill: #225894;
      }

      .cls-2 {
        fill: url(#radial-gradient);
      }

      .cls-3 {
        fill: url(#radial-gradient-2);
      }

      .cls-4 {
        fill: url(#radial-gradient-3);
      }

      .cls-5 {
        fill: #0b7ec3;
      }
    </style>
    <radialGradient id="radial-gradient" cx="22.312" cy="37.116" r="46.372" gradientTransform="translate(-0.816 -1.361) scale(1.037 1.037)" gradientUnits="userSpaceOnUse">
      <stop offset="0" stop-color="#95a5cd"/>
      <stop offset="1" stop-color="#003680"/>
    </radialGradient>
    <radialGradient id="radial-gradient-2" cx="93.799" cy="-49.222" r="0.181" gradientTransform="translate(-20.485 39.476) scale(1.377 1.377)" gradientUnits="userSpaceOnUse">
      <stop offset="0" stop-color="#7d95c7"/>
      <stop offset="1" stop-color="#003680"/>
    </radialGradient>
    <radialGradient id="radial-gradient-3" cx="180.943" cy="159.036" fx="162.0970458444517" fy="119.14786036161058" r="165.502" gradientTransform="translate(63.328 6.304) scale(0.267 0.267)" xlink:href="#radial-gradient"/>
  </defs>
  <g id="Group_1890" data-name="Group 1890" transform="translate(2122.516 -1735)">
    <g id="Group_1889" data-name="Group 1889">
      <path id="Path_1" data-name="Path 1" class="cls-1" d="M132.6,165" transform="translate(-2172.828 1672.448)"/>
      <path id="Path_2" data-name="Path 2" class="cls-2" d="M128.494,26.483S83.8-22.738,30.362,12.89c0,0-38.545,22.345-28.738,80.07,0,0,3.724,23.959,28.986,40.159,0,0-23.648-25.7-20.731-54.435,0,0,.807-29.3,20.855-47.545C30.672,31.077,65.99-10.945,128.494,26.483Z" transform="translate(-2122.542 1735.053)"/>
      <path id="Path_3" data-name="Path 3" class="cls-3" d="M61.561,55.6S27.547,85.207,43.809,125.3c0,0,19.676,49.283,72.187,32.09,0,0-30.166,3.166-50.525-17.193C65.471,140.139,26.119,110.9,61.561,55.6Z" transform="translate(-2137.479 1713.944)"/>
      <path id="Path_4" data-name="Path 4" class="cls-4" d="M94.6,161.4s28.738,19.3,59.028,4.407c0,0,18.248-9.373,29.421-13.1,0,0,17.938-5.648,32.09.869,0,0-12.041-.186-29.98,10.614,0,0-20.917,15.455-35.131,17.193C150.09,181.45,117.876,189.767,94.6,161.4Z" transform="translate(-2158.414 1677.97)"/>
      <g id="Group_1" data-name="Group 1" transform="translate(-2071.014 1787.917)">
        <g id="Group_1-2" data-name="Group 1" transform="translate(0 0)">
          <path id="Path_7" data-name="Path 7" class="cls-5" d="M107.269,105.438c0,2.3-4.9,7.7-15.7,8.317-2.855.186-6.89-.807-6.89-4.469,0-1.3-.186-1.49,4.469-7.635-1.117-.062-3.662-.186-3.662-1.552,0-1.738,5.586-1.8,6.828-2.172,2.607-2.545,5.276-5.9,9.248-5.9-.31.683-.559,1.179-3.91,5.09,9.062-1.241,11.173-3.972,11.11-5.028-.062-.869-1.179-2.3-5.835-1.986A48.619,48.619,0,0,0,91.69,92.9c.248.124.559.31.559.621,0,.621-.931.869-1.428.931A24.881,24.881,0,0,0,85.235,96a4.053,4.053,0,0,1-1.241.31c-.683,0-.993-.372-.993-1.055a9.686,9.686,0,0,1,1.862-3.352c.869-1.117,1.986-2.669,3.352-3.166A55.486,55.486,0,0,1,103.793,85.7c6.89,0,8.566,2.731,8.566,4.9,0,6.517-12.166,8.131-16.821,9.062l-.807.745C97.462,100.783,107.269,101.59,107.269,105.438Zm-16.635-.745c-.5.559-1.428,1.428-1.428,2.3,0,1.738,3.166,2.235,4.469,2.235,3.538-.062,9.124-2.669,9.124-4.221,0-2.11-8.255-2.669-9.869-2.669Z" transform="translate(-83 -85.39)"/>
          <path id="Path_8" data-name="Path 8" class="cls-5" d="M137.873,109.069c-2.234,2.3-5.959,6.331-9.435,6.331-2.917,0-3.538-2.855-3.538-5.214a19.67,19.67,0,0,1,4.407-11.917c3.538-4.345,7.324-8.069,8.628-8.069.683,0,.869.993.807,1.49-.31,3.786-1.3,7.324-9.993,15.766a4.558,4.558,0,0,0-.31,2.793c.372.931.931,1.738,1.986,1.738,2.235,0,5.276-2.545,6.89-4.035Zm-8.255-5.4a25.477,25.477,0,0,0,6.083-8.752c-1.986.931-4.221,4.593-6.145,8.69Z" transform="translate(-98.893 -87.097)"/>
          <path id="Path_9" data-name="Path 9" class="cls-5" d="M155.679,110.093c.869-.745,4.779-4.593,5.772-4.593.31,0,.745.124.931,2.235.062.931-.993,1.862-1.614,2.421-1.3,1.179-4.159,4.345-4.159,6.145,0,.621.372.869.993.869,1.552,0,4.966-2.793,6.145-3.786l.248,1.738c-2.048,1.986-6.269,6.579-9.248,6.579a2.437,2.437,0,0,1-2.359-2.669,8.932,8.932,0,0,1,.869-3.352l-.062-.062c-1.552,1.366-4.221,4.966-6.455,4.966-1.986,0-3.041-2.235-3.041-3.972,0-3.91,2.979-7.883,5.586-9.559a2.806,2.806,0,0,1,1.738-.434c.559,0,2.607-.372,2.421.869-.062.621-1.179,1.738-1.614,2.11a13.306,13.306,0,0,1-3.041,2.855c-1.241.869-2.235,1.738-2.235,3.476,0,.186.062.621.31.621.745,0,2.917-1.179,4.779-2.855Z" transform="translate(-106.024 -92.9)"/>
          <path id="Path_10" data-name="Path 10" class="cls-5" d="M190.242,114.886c-2.421,2.855-6.828,6.641-10.8,6.641-2.917,0-4.283-2.607-4.345-5.276-.186-5.276,5.648-10.614,10.862-10.552,1.3,0,2.855.31,2.855,1.924,0,1.986-1.986,4.9-9.683,7.448l-.062.869c-.124,1.552,1.179,2.048,2.483,2.048,2.855,0,6.207-2.917,8.317-4.593Zm-4.966-6.455c0-.31-.186-.5-.5-.434a8.636,8.636,0,0,0-5.4,5.09C182.918,111.907,185.277,109.113,185.277,108.431Z" transform="translate(-117.931 -92.975)"/>
          <path id="Path_11" data-name="Path 11" class="cls-5" d="M228.528,109.159a.8.8,0,0,1,.745.745c0,.5-.993,1.862-2.048,3.228-.5.745-1.366,1.862-2.359,1.862s-1.366-.559-1.366-1.428c0-1.738,2.855-6.145,3.786-7.821-.931-.621-1.8-1.3-1.8-2.545,0-2.3,4.717-3.414,6.393-3.91l6.393-8.441c-7.014.124-12.6,2.669-13.779,2.669-.248,0-.621-.062-.621-.372,0-.993,2.3-4.035,2.979-4.9a5.227,5.227,0,0,1,3.041-1.614,39.716,39.716,0,0,1,10.8-1.428c9.931,0,12.724,3.228,12.724,8.193,0,8.566-10.366,14.524-23.214,13.1Zm7.014-10.428c1.49,0,3.1-.559,3.1.186,0,.807-3.414.993-4.034,1.428l-.869,1.3a12.227,12.227,0,0,0,4.159.372c7.883-.434,13.035-6.145,12.6-8.69-.435-2.421-8.007-2.917-9.807-2.917a4.1,4.1,0,0,1-.869,2.421Z" transform="translate(-136.292 -85.2)"/>
          <path id="Path_12" data-name="Path 12" class="cls-5" d="M274.257,118.189c-.745.621-3.352,2.669-4.221,2.669-1.117,0-3.476-2.669-3.538-4.717-.186-5.028,10.241-10.117,14.9-10.241A2.418,2.418,0,0,1,284,107.823c0,.5-1.055.869-1.428.993a1.6,1.6,0,0,1,1.179,1.614c0,1.3-3.476,4.1-3.476,5.959,0,.683.621.931,1.241.931,1.676,0,3.972-2.048,5.71-3.228l.31,1.49c-1.738,1.986-7.076,6.269-9.062,6.269a1.906,1.906,0,0,1-1.924-2.11,12.27,12.27,0,0,1,1.49-4.469l-.062-.062Zm-4.9-.993c.062.186.186.931.807.807.807-.186,2.048-.062,9.993-8.069l-.062-.062C270.533,112.727,269.354,115.209,269.354,117.2Z" transform="translate(-152.601 -93.05)"/>
          <path id="Path_13" data-name="Path 13" class="cls-5" d="M304.231,113.183c-.869.621-1.614,1.241-1.614,2.359,0,.931.993,2.172,3.041,2.172,3.041,0,6.517-2.793,8.876-4.593l.5,1.552c-2.421,2.607-6.952,6.579-10.738,6.579-3.1,0-4.593-2.855-4.593-5.835,0-3.352,1.179-4.593,3.786-6.579,1.8-1.366,5.648-3.538,7.883-3.538,1.241,0,1.8.621,1.8,1.862,0,2.235-3.166,5.276-4.221,5.276-.931,0-1.3-.993-1.366-1.738Z" transform="translate(-165.195 -92.824)"/>
          <path id="Path_14" data-name="Path 14" class="cls-5" d="M334.055,113.014c-1.8,2.235-5.338,5.835-8.379,5.835-2.359,0-3.476-2.731-3.476-4.779,0-4.9,5.028-9.683,7.386-9.683.683,0,1.738.248,1.738,1.117,0,1.986-3.972,5.586-5.648,6.7-.31,1.614.31,2.545,2.11,2.545,2.11,0,4.221-2.11,5.835-3.29Zm-3.848-11.11c0-1.614,1.924-3.1,3.476-3.1a1.223,1.223,0,0,1,1.3,1.241c0,1.614-1.49,3.538-3.228,3.538A1.534,1.534,0,0,1,330.207,101.9Z" transform="translate(-173.73 -90.359)"/>
          <path id="Path_15" data-name="Path 15" class="cls-5" d="M357.845,101.162c.683,0,1.738.248,1.738,1.117,0,1.986-3.972,5.586-5.648,6.7-.31,1.614.31,2.545,2.11,2.545,2.11,0,4.221-2.11,5.835-3.29l.372,1.552c-1.8,2.235-5.338,5.835-8.379,5.835-2.359,0-3.476-2.731-3.476-4.779,0-.124,0-.186.062-.248l-.062-.062a15,15,0,0,1-3.724,2.669,8.987,8.987,0,0,1,.062,2.235c-.31,4.779-5.959,9.186-8.876,9.621-1.862.31-2.359-3.476-2.359-4.779,0-2.607,1.738-5.772,2.793-8.069a3.332,3.332,0,0,1-1.179-2.3c0-1.614,1.055-2.048,2.234-2.669a12.294,12.294,0,0,0,4.9-5.462c1.055-1.986,6.207-11.483,8.255-11.483.869,0,.993,1.117.993,1.738a12.3,12.3,0,0,1-2.11,5.586l-7.51,10.428c1.179.683,1.552,1.986,2.11,3.166l4.966-3.1C352.2,104.328,355.859,101.162,357.845,101.162Zm-14.09,12.786a5.871,5.871,0,0,1-2.855-.31,12.493,12.493,0,0,0-1.862,4.531,5.456,5.456,0,0,0,.807,3.538A8.814,8.814,0,0,0,343.755,113.948ZM358.4,98.679c0-1.614,1.924-3.1,3.476-3.1a1.223,1.223,0,0,1,1.3,1.241c0,1.614-1.49,3.538-3.228,3.538A1.534,1.534,0,0,1,358.4,98.679Z" transform="translate(-178.774 -87.134)"/>
          <path id="Path_16" data-name="Path 16" class="cls-5" d="M382.631,113.183c-.869.621-1.614,1.241-1.614,2.359,0,.931.993,2.172,3.041,2.172,3.041,0,6.517-2.793,8.876-4.593l.5,1.552c-2.421,2.607-6.952,6.579-10.738,6.579-3.1,0-4.593-2.855-4.593-5.835,0-3.352,1.179-4.593,3.786-6.579,1.8-1.366,5.648-3.538,7.883-3.538,1.241,0,1.8.621,1.8,1.862,0,2.235-3.166,5.276-4.221,5.276-.931,0-1.3-.993-1.365-1.738Z" transform="translate(-194.933 -92.824)"/>
        </g>
      </g>
    </g>
  </g>
</svg>
