<svg xmlns="http://www.w3.org/2000/svg" xmlns:xlink="http://www.w3.org/1999/xlink" viewBox="0 0 337.517 188.981">
  <defs>
    <style>
      .cls-1 {
        fill: #225894;
      }

      .cls-2 {
        fill: url(#radial-gradient);
      }

      .cls-3 {
        fill: url(#radial-gradient-2);
      }

      .cls-4 {
        fill: url(#radial-gradient-3);
      }

      .cls-5 {
        fill: #0b7ec3;
      }
    </style>
    <radialGradient id="radial-gradient" cx="30.114" cy="50.127" r="62.606" gradientTransform="translate(-1.102 -1.838) scale(1.037 1.037)" gradientUnits="userSpaceOnUse">
      <stop offset="0" stop-color="#95a5cd"/>
      <stop offset="1" stop-color="#003680"/>
    </radialGradient>
    <radialGradient id="radial-gradient-2" cx="112.841" cy="-85.916" r="0.245" gradientTransform="translate(-27.656 53.296) scale(1.377 1.377)" gradientUnits="userSpaceOnUse">
      <stop offset="0" stop-color="#7d95c7"/>
      <stop offset="1" stop-color="#003680"/>
    </radialGradient>
    <radialGradient id="radial-gradient-3" cx="211.169" cy="162.044" fx="185.7254945573004" fy="108.19334705160327" r="223.438" gradientTransform="translate(85.497 8.511) scale(0.267 0.267)" xlink:href="#radial-gradient"/>
  </defs>
  <g id="Group_1889" data-name="Group 1889" transform="translate(2122.516 -1735)">
    <path id="Path_1" data-name="Path 1" class="cls-1" d="M132.6,165" transform="translate(-2144.021 1708.312)"/>
    <path id="Path_2" data-name="Path 2" class="cls-2" d="M173.466,35.773S113.132-30.679,40.981,17.421c0,0-52.039,30.167-38.8,108.1,0,0,5.028,32.346,39.134,54.217,0,0-31.927-34.692-27.989-73.491,0,0,1.089-39.553,28.156-64.189C41.4,41.974,89.081-14.757,173.466,35.773Z" transform="translate(-2122.542 1735.053)"/>
    <path id="Path_3" data-name="Path 3" class="cls-3" d="M69.317,55.6S23.4,95.572,45.351,149.705c0,0,26.564,66.536,97.457,43.324,0,0-40.726,4.274-68.212-23.212C74.6,169.733,21.468,130.264,69.317,55.6Z" transform="translate(-2128.922 1726.036)"/>
    <path id="Path_4" data-name="Path 4" class="cls-4" d="M94.6,165.239s38.8,26.061,79.692,5.95c0,0,24.637-12.654,39.72-17.681,0,0,24.218-7.626,43.324,1.173,0,0-16.257-.251-40.474,14.329,0,0-28.24,20.866-47.43,23.212C169.515,192.306,126.024,203.535,94.6,165.239Z" transform="translate(-2137.865 1710.671)"/>
    <g id="Group_1" data-name="Group 1" transform="translate(-2052.985 1806.441)">
      <g id="Group_1-2" data-name="Group 1" transform="translate(0 0)">
        <path id="Path_7" data-name="Path 7" class="cls-5" d="M115.765,112.348c0,3.1-6.62,10.391-21.2,11.229-3.855.251-9.3-1.089-9.3-6.033,0-1.76-.251-2.011,6.033-10.307-1.508-.084-4.944-.251-4.944-2.095,0-2.346,7.542-2.43,9.218-2.933,3.519-3.436,7.123-7.961,12.486-7.961-.419.922-.754,1.592-5.279,6.871,12.234-1.676,15.084-5.363,15-6.788-.084-1.173-1.592-3.1-7.877-2.682a65.639,65.639,0,0,0-15.167,3.771c.335.168.754.419.754.838,0,.838-1.257,1.173-1.927,1.257a33.591,33.591,0,0,0-7.542,2.095,5.472,5.472,0,0,1-1.676.419c-.922,0-1.341-.5-1.341-1.425a13.077,13.077,0,0,1,2.514-4.525c1.173-1.508,2.682-3.6,4.525-4.274,5.279-2.011,15.335-4.106,21.033-4.106,9.3,0,11.564,3.687,11.564,6.62,0,8.8-16.424,10.978-22.709,12.235l-1.089,1.006C102.525,106.063,115.765,107.152,115.765,112.348Zm-22.458-1.006c-.67.754-1.927,1.927-1.927,3.1,0,2.346,4.274,3.017,6.033,3.017,4.776-.084,12.318-3.6,12.318-5.7,0-2.849-11.145-3.6-13.324-3.6Z" transform="translate(-83 -85.281)"/>
        <path id="Path_8" data-name="Path 8" class="cls-5" d="M142.414,115.675c-3.017,3.1-8.045,8.547-12.737,8.547-3.939,0-4.776-3.855-4.776-7.039a26.556,26.556,0,0,1,5.95-16.089C135.626,95.228,140.738,90.2,142.5,90.2c.922,0,1.173,1.341,1.089,2.011-.419,5.112-1.76,9.888-13.491,21.285a6.154,6.154,0,0,0-.419,3.771c.5,1.257,1.257,2.346,2.682,2.346,3.017,0,7.123-3.436,9.3-5.447Zm-11.145-7.29c3.855-3.6,7.207-8.8,8.212-11.816-2.682,1.257-5.7,6.2-8.3,11.732Z" transform="translate(-89.789 -86.01)"/>
        <path id="Path_9" data-name="Path 9" class="cls-5" d="M159.873,111.7c1.173-1.006,6.452-6.2,7.793-6.2.419,0,1.006.168,1.257,3.017.084,1.257-1.341,2.514-2.179,3.268-1.76,1.592-5.614,5.866-5.614,8.3,0,.838.5,1.173,1.341,1.173,2.095,0,6.7-3.771,8.3-5.112l.335,2.346c-2.765,2.682-8.464,8.883-12.486,8.883-2.011,0-3.184-1.676-3.184-3.6a12.059,12.059,0,0,1,1.173-4.525l-.084-.084c-2.095,1.844-5.7,6.7-8.715,6.7-2.682,0-4.106-3.017-4.106-5.363,0-5.279,4.022-10.642,7.542-12.9a3.788,3.788,0,0,1,2.346-.587c.754,0,3.519-.5,3.268,1.173-.084.838-1.592,2.346-2.179,2.849a17.964,17.964,0,0,1-4.106,3.855c-1.676,1.173-3.017,2.346-3.017,4.693,0,.251.084.838.419.838,1.006,0,3.939-1.592,6.452-3.855Z" transform="translate(-92.835 -88.489)"/>
        <path id="Path_10" data-name="Path 10" class="cls-5" d="M195.546,118.1c-3.268,3.855-9.218,8.966-14.581,8.966-3.939,0-5.782-3.52-5.866-7.123-.251-7.123,7.626-14.329,14.665-14.246,1.76,0,3.855.419,3.855,2.6,0,2.682-2.682,6.62-13.072,10.056l-.084,1.173c-.168,2.095,1.592,2.765,3.352,2.765,3.855,0,8.38-3.938,11.229-6.2Zm-6.7-8.715c0-.419-.251-.67-.67-.587a11.659,11.659,0,0,0-7.29,6.871C185.657,114.08,188.842,110.309,188.842,109.387Z" transform="translate(-97.921 -88.521)"/>
        <path id="Path_11" data-name="Path 11" class="cls-5" d="M230.288,117.546a1.081,1.081,0,0,1,1.006,1.006c0,.67-1.341,2.514-2.765,4.358-.67,1.006-1.844,2.514-3.184,2.514s-1.844-.754-1.844-1.927c0-2.346,3.855-8.3,5.112-10.559-1.257-.838-2.43-1.76-2.43-3.436,0-3.1,6.369-4.609,8.631-5.279l8.631-11.4c-9.469.168-17.011,3.6-18.6,3.6-.335,0-.838-.084-.838-.5,0-1.341,3.1-5.447,4.022-6.62,1.006-1.341,2.6-1.76,4.106-2.179A53.618,53.618,0,0,1,246.712,85.2c13.408,0,17.179,4.357,17.179,11.061,0,11.564-13.994,19.609-31.34,17.681Zm9.469-14.078c2.011,0,4.19-.754,4.19.251,0,1.089-4.609,1.341-5.447,1.927l-1.173,1.76a16.507,16.507,0,0,0,5.614.5c10.642-.587,17.6-8.3,17.011-11.732-.587-3.268-10.81-3.939-13.24-3.939a5.538,5.538,0,0,1-1.173,3.268Z" transform="translate(-105.764 -85.2)"/>
        <path id="Path_12" data-name="Path 12" class="cls-5" d="M276.974,122.492c-1.006.838-4.525,3.6-5.7,3.6-1.508,0-4.693-3.6-4.776-6.369-.251-6.788,13.827-13.659,20.112-13.827a3.264,3.264,0,0,1,3.519,2.6c0,.67-1.425,1.173-1.927,1.341a2.167,2.167,0,0,1,1.592,2.179c0,1.76-4.693,5.531-4.693,8.045,0,.922.838,1.257,1.676,1.257,2.263,0,5.363-2.765,7.709-4.358l.419,2.011c-2.346,2.682-9.553,8.464-12.234,8.464a2.573,2.573,0,0,1-2.6-2.849c0-1.76,1.257-4.609,2.011-6.033l-.084-.084Zm-6.62-1.341c.084.251.251,1.257,1.089,1.089,1.089-.251,2.765-.084,13.492-10.894l-.084-.084C271.946,115.117,270.354,118.469,270.354,121.151Z" transform="translate(-112.73 -88.553)"/>
        <path id="Path_13" data-name="Path 13" class="cls-5" d="M305.817,115.942c-1.173.838-2.179,1.676-2.179,3.184,0,1.257,1.341,2.933,4.106,2.933,4.106,0,8.8-3.771,11.983-6.2l.67,2.095c-3.268,3.52-9.385,8.883-14.5,8.883-4.19,0-6.2-3.855-6.2-7.877,0-4.525,1.592-6.2,5.112-8.883,2.43-1.844,7.626-4.776,10.642-4.776,1.676,0,2.43.838,2.43,2.514,0,3.017-4.274,7.123-5.7,7.123-1.257,0-1.76-1.341-1.844-2.346Z" transform="translate(-118.11 -88.457)"/>
        <path id="Path_14" data-name="Path 14" class="cls-5" d="M338.205,117.99c-2.43,3.017-7.207,7.877-11.313,7.877-3.184,0-4.693-3.687-4.693-6.452,0-6.62,6.788-13.072,9.972-13.072.922,0,2.346.335,2.346,1.508,0,2.682-5.363,7.542-7.626,9.05-.419,2.179.419,3.436,2.849,3.436,2.849,0,5.7-2.849,7.877-4.441Zm-5.2-15c0-2.179,2.6-4.19,4.693-4.19a1.651,1.651,0,0,1,1.76,1.676c0,2.179-2.011,4.776-4.358,4.776A2.071,2.071,0,0,1,333.01,102.99Z" transform="translate(-121.755 -87.403)"/>
        <path id="Path_15" data-name="Path 15" class="cls-5" d="M365.667,104.965c.922,0,2.346.335,2.346,1.508,0,2.682-5.363,7.542-7.626,9.05-.419,2.179.419,3.436,2.849,3.436,2.849,0,5.7-2.849,7.877-4.441l.5,2.095c-2.43,3.017-7.207,7.877-11.313,7.877-3.184,0-4.693-3.687-4.693-6.452,0-.168,0-.251.084-.335l-.084-.084a20.246,20.246,0,0,1-5.028,3.6,12.132,12.132,0,0,1,.084,3.017c-.419,6.452-8.045,12.4-11.983,12.989-2.514.419-3.184-4.693-3.184-6.452,0-3.52,2.346-7.793,3.771-10.894a4.5,4.5,0,0,1-1.592-3.1c0-2.179,1.425-2.765,3.017-3.6,3.184-1.76,4.944-4.274,6.62-7.374,1.425-2.682,8.38-15.5,11.145-15.5,1.173,0,1.341,1.508,1.341,2.346,0,2.095-1.592,5.866-2.849,7.542l-10.14,14.078c1.592.922,2.095,2.682,2.849,4.274l6.7-4.19C358.042,109.238,362.986,104.965,365.667,104.965Zm-19.022,17.262a7.926,7.926,0,0,1-3.855-.419,16.866,16.866,0,0,0-2.514,6.117,7.366,7.366,0,0,0,1.089,4.776C344.634,130.523,347.064,126.249,346.645,122.227Zm19.776-20.614c0-2.179,2.6-4.19,4.693-4.19a1.651,1.651,0,0,1,1.76,1.676c0,2.179-2.011,4.776-4.357,4.776A2.071,2.071,0,0,1,366.421,101.613Z" transform="translate(-123.91 -86.026)"/>
        <path id="Path_16" data-name="Path 16" class="cls-5" d="M384.217,115.942c-1.173.838-2.179,1.676-2.179,3.184,0,1.257,1.341,2.933,4.106,2.933,4.106,0,8.8-3.771,11.983-6.2l.67,2.095c-3.268,3.52-9.385,8.883-14.5,8.883-4.19,0-6.2-3.855-6.2-7.877,0-4.525,1.592-6.2,5.112-8.883,2.43-1.844,7.626-4.776,10.642-4.776,1.676,0,2.43.838,2.43,2.514,0,3.017-4.274,7.123-5.7,7.123-1.257,0-1.76-1.341-1.844-2.346Z" transform="translate(-130.812 -88.457)"/>
      </g>
    </g>
  </g>
</svg>
