<svg xmlns="http://www.w3.org/2000/svg" xmlns:xlink="http://www.w3.org/1999/xlink" viewBox="0 0 141.093 79">
  <defs>
    <style>
      .cls-1 {
        fill: #225894;
      }

      .cls-2 {
        fill: url(#radial-gradient);
      }

      .cls-3 {
        fill: url(#radial-gradient-2);
      }

      .cls-4 {
        fill: url(#radial-gradient-3);
      }

      .cls-5 {
        fill: #0b7ec3;
      }
    </style>
    <radialGradient id="radial-gradient" cx="12.604" cy="20.924" r="26.171" gradientTransform="translate(-0.461 -0.768) scale(1.037 1.037)" gradientUnits="userSpaceOnUse">
      <stop offset="0" stop-color="#95a5cd"/>
      <stop offset="1" stop-color="#003680"/>
    </radialGradient>
    <radialGradient id="radial-gradient-2" cx="70.104" cy="-3.558" r="0.102" gradientTransform="translate(-11.561 22.279) scale(1.377 1.377)" gradientUnits="userSpaceOnUse">
      <stop offset="0" stop-color="#7d95c7"/>
      <stop offset="1" stop-color="#003680"/>
    </radialGradient>
    <radialGradient id="radial-gradient-3" cx="143.33" cy="155.291" fx="132.6934059490868" fy="132.77983481678802" r="93.405" gradientTransform="translate(35.74 3.558) scale(0.267 0.267)" xlink:href="#radial-gradient"/>
  </defs>
  <g id="Group_1889" data-name="Group 1889" transform="translate(2122.516 -1735)">
    <path id="Path_1" data-name="Path 1" class="cls-1" d="M132.6,165" transform="translate(-2208.675 1627.819)"/>
    <path id="Path_2" data-name="Path 2" class="cls-2" d="M72.529,14.923S47.308-12.856,17.147,7.252c0,0-21.754,12.611-16.219,45.189,0,0,2.1,13.522,16.359,22.665,0,0-13.347-14.5-11.7-30.722,0,0,.455-16.534,11.77-26.833C17.322,17.515,37.254-6.2,72.529,14.923Z" transform="translate(-2122.542 1735.053)"/>
    <path id="Path_3" data-name="Path 3" class="cls-3" d="M51.909,55.6s-19.2,16.709-10.019,39.339c0,0,11.1,27.814,40.74,18.111,0,0-17.025,1.787-28.515-9.7C54.116,103.311,31.907,86.812,51.909,55.6Z" transform="translate(-2148.126 1698.896)"/>
    <path id="Path_4" data-name="Path 4" class="cls-4" d="M94.6,156.627s16.219,10.894,33.314,2.487c0,0,10.3-5.29,16.6-7.391,0,0,10.124-3.188,18.111.49,0,0-6.8-.105-16.92,5.99,0,0-11.805,8.723-19.827,9.7A31.784,31.784,0,0,1,94.6,156.627Z" transform="translate(-2183.986 1637.278)"/>
    <g id="Group_1" data-name="Group 1" transform="translate(-2093.45 1764.865)">
      <g id="Group_1-2" data-name="Group 1" transform="translate(0 0)">
        <path id="Path_7" data-name="Path 7" class="cls-5" d="M96.7,96.84c0,1.3-2.767,4.344-8.863,4.694-1.611.105-3.888-.455-3.888-2.522,0-.736-.105-.841,2.522-4.309-.631-.035-2.067-.105-2.067-.876,0-.981,3.153-1.016,3.853-1.226,1.471-1.436,2.978-3.328,5.22-3.328-.175.385-.315.666-2.207,2.872,5.114-.7,6.305-2.242,6.27-2.837-.035-.49-.666-1.3-3.293-1.121a27.439,27.439,0,0,0-6.34,1.576c.14.07.315.175.315.35,0,.35-.525.49-.806.525a14.042,14.042,0,0,0-3.153.876,2.287,2.287,0,0,1-.7.175c-.385,0-.56-.21-.56-.6A5.467,5.467,0,0,1,84.051,89.2a5.131,5.131,0,0,1,1.892-1.787A31.315,31.315,0,0,1,94.735,85.7c3.888,0,4.834,1.541,4.834,2.767,0,3.678-6.866,4.589-9.493,5.114l-.455.42C91.162,94.212,96.7,94.668,96.7,96.84Zm-9.388-.42c-.28.315-.806.806-.806,1.3,0,.981,1.787,1.261,2.522,1.261,2-.035,5.149-1.506,5.149-2.382,0-1.191-4.659-1.506-5.57-1.506Z" transform="translate(-83 -85.525)"/>
        <path id="Path_8" data-name="Path 8" class="cls-5" d="M132.221,100.849c-1.261,1.3-3.363,3.573-5.325,3.573-1.646,0-2-1.611-2-2.943a11.1,11.1,0,0,1,2.487-6.726c2-2.452,4.134-4.554,4.869-4.554.385,0,.49.56.455.841-.175,2.137-.736,4.134-5.64,8.9a2.572,2.572,0,0,0-.175,1.576c.21.525.525.981,1.121.981,1.261,0,2.978-1.436,3.888-2.277ZM127.562,97.8A14.378,14.378,0,0,0,131,92.862c-1.121.525-2.382,2.592-3.468,4.9Z" transform="translate(-110.222 -88.448)"/>
        <path id="Path_9" data-name="Path 9" class="cls-5" d="M150.461,108.092c.49-.42,2.7-2.592,3.258-2.592.175,0,.42.07.525,1.261.035.525-.56,1.051-.911,1.366-.736.666-2.347,2.452-2.347,3.468,0,.35.21.49.56.49.876,0,2.8-1.576,3.468-2.137l.14.981c-1.156,1.121-3.538,3.713-5.22,3.713a1.376,1.376,0,0,1-1.331-1.506,5.041,5.041,0,0,1,.49-1.892l-.035-.035c-.876.771-2.382,2.8-3.643,2.8-1.121,0-1.716-1.261-1.716-2.242a7.173,7.173,0,0,1,3.153-5.395,1.584,1.584,0,0,1,.981-.245c.315,0,1.471-.21,1.366.49-.035.35-.666.981-.911,1.191a7.51,7.51,0,0,1-1.716,1.611,2.281,2.281,0,0,0-1.261,1.962c0,.105.035.35.175.35a6.434,6.434,0,0,0,2.7-1.611Z" transform="translate(-122.437 -98.389)"/>
        <path id="Path_10" data-name="Path 10" class="cls-5" d="M183.643,110.884c-1.366,1.611-3.853,3.748-6.1,3.748-1.646,0-2.417-1.471-2.452-2.978-.105-2.978,3.188-5.99,6.13-5.955.736,0,1.611.175,1.611,1.086,0,1.121-1.121,2.767-5.465,4.2l-.035.49c-.07.876.666,1.156,1.4,1.156,1.611,0,3.5-1.646,4.694-2.592Zm-2.8-3.643c0-.175-.105-.28-.28-.245a4.874,4.874,0,0,0-3.048,2.872C179.509,109.2,180.84,107.626,180.84,107.241Z" transform="translate(-142.833 -98.518)"/>
        <path id="Path_11" data-name="Path 11" class="cls-5" d="M226.337,98.722a.452.452,0,0,1,.42.42,6.1,6.1,0,0,1-1.156,1.822c-.28.42-.771,1.051-1.331,1.051s-.771-.315-.771-.806c0-.981,1.611-3.468,2.137-4.414-.525-.35-1.016-.736-1.016-1.436,0-1.3,2.662-1.927,3.608-2.207l3.608-4.764c-3.958.07-7.111,1.506-7.777,1.506-.14,0-.35-.035-.35-.21,0-.56,1.3-2.277,1.681-2.767a2.95,2.95,0,0,1,1.717-.911,22.414,22.414,0,0,1,6.1-.806c5.6,0,7.181,1.822,7.181,4.624,0,4.834-5.85,8.2-13.1,7.391Zm3.958-5.885c.841,0,1.751-.315,1.751.105,0,.455-1.927.56-2.277.806l-.49.736a6.9,6.9,0,0,0,2.347.21c4.449-.245,7.356-3.468,7.111-4.9-.245-1.366-4.519-1.646-5.535-1.646a2.315,2.315,0,0,1-.49,1.366Z" transform="translate(-174.282 -85.2)"/>
        <path id="Path_12" data-name="Path 12" class="cls-5" d="M270.876,112.834a7.992,7.992,0,0,1-2.382,1.506c-.631,0-1.962-1.506-2-2.662-.105-2.837,5.78-5.71,8.407-5.78a1.364,1.364,0,0,1,1.471,1.086c0,.28-.6.49-.806.56a.906.906,0,0,1,.666.911c0,.736-1.962,2.312-1.962,3.363,0,.385.35.525.7.525.946,0,2.242-1.156,3.223-1.822l.175.841c-.981,1.121-3.993,3.538-5.114,3.538a1.076,1.076,0,0,1-1.086-1.191,6.924,6.924,0,0,1,.841-2.522l-.035-.035Zm-2.767-.56c.035.105.105.525.455.455.455-.105,1.156-.035,5.64-4.554l-.035-.035C268.774,109.751,268.109,111.153,268.109,112.274Z" transform="translate(-202.217 -98.647)"/>
        <path id="Path_13" data-name="Path 13" class="cls-5" d="M302.257,109.749c-.49.35-.911.7-.911,1.331,0,.525.56,1.226,1.717,1.226,1.716,0,3.678-1.576,5.009-2.592l.28.876c-1.366,1.471-3.923,3.713-6.06,3.713-1.752,0-2.592-1.611-2.592-3.293,0-1.892.666-2.592,2.137-3.713,1.016-.771,3.188-2,4.449-2,.7,0,1.016.35,1.016,1.051a4.054,4.054,0,0,1-2.382,2.978c-.525,0-.736-.56-.771-.981Z" transform="translate(-223.789 -98.259)"/>
        <path id="Path_14" data-name="Path 14" class="cls-5" d="M328.891,106.822c-1.016,1.261-3.013,3.293-4.729,3.293-1.331,0-1.962-1.541-1.962-2.7,0-2.767,2.837-5.465,4.169-5.465.385,0,.981.14.981.631,0,1.121-2.242,3.153-3.188,3.783-.175.911.175,1.436,1.191,1.436,1.191,0,2.382-1.191,3.293-1.857Zm-2.172-6.27a2.062,2.062,0,0,1,1.962-1.752.69.69,0,0,1,.736.7,2.07,2.07,0,0,1-1.822,2A.866.866,0,0,1,326.719,100.552Z" transform="translate(-238.408 -94.036)"/>
        <path id="Path_15" data-name="Path 15" class="cls-5" d="M348.111,96.43c.385,0,.981.14.981.631,0,1.121-2.242,3.153-3.188,3.783-.175.911.175,1.436,1.191,1.436,1.191,0,2.382-1.191,3.293-1.857l.21.876c-1.016,1.261-3.013,3.293-4.729,3.293-1.331,0-1.962-1.541-1.962-2.7,0-.07,0-.105.035-.14l-.035-.035a8.463,8.463,0,0,1-2.1,1.506,5.071,5.071,0,0,1,.035,1.261c-.175,2.7-3.363,5.184-5.009,5.43-1.051.175-1.331-1.962-1.331-2.7,0-1.471.981-3.258,1.576-4.554a1.88,1.88,0,0,1-.666-1.3c0-.911.6-1.156,1.261-1.506a6.939,6.939,0,0,0,2.767-3.083c.6-1.121,3.5-6.481,4.659-6.481.49,0,.56.631.56.981a6.944,6.944,0,0,1-1.191,3.153l-4.239,5.885a3.522,3.522,0,0,1,1.191,1.787l2.8-1.752C344.923,98.217,346.99,96.43,348.111,96.43Zm-7.952,7.216a3.314,3.314,0,0,1-1.611-.175,7.05,7.05,0,0,0-1.051,2.557,3.079,3.079,0,0,0,.455,2A4.974,4.974,0,0,0,340.159,103.647Zm8.267-8.617a2.062,2.062,0,0,1,1.962-1.752.69.69,0,0,1,.736.7,2.07,2.07,0,0,1-1.822,2A.866.866,0,0,1,348.426,95.029Z" transform="translate(-247.049 -88.513)"/>
        <path id="Path_16" data-name="Path 16" class="cls-5" d="M380.657,109.749c-.49.35-.911.7-.911,1.331,0,.525.56,1.226,1.716,1.226,1.717,0,3.678-1.576,5.009-2.592l.28.876c-1.366,1.471-3.923,3.713-6.06,3.713-1.751,0-2.592-1.611-2.592-3.293,0-1.892.666-2.592,2.137-3.713,1.016-.771,3.188-2,4.449-2,.7,0,1.016.35,1.016,1.051a4.054,4.054,0,0,1-2.382,2.978c-.525,0-.736-.56-.771-.981Z" transform="translate(-274.726 -98.259)"/>
      </g>
    </g>
  </g>
</svg>
