<svg xmlns="http://www.w3.org/2000/svg" viewBox="0 0 278.422 279.045">
  <defs>
    <style>
      .cls-1 {
        fill: #003680;
      }
    </style>
  </defs>
  <g id="marker" transform="translate(-0.572)">
    <g id="Group_1677" data-name="Group 1677" transform="translate(0.572 152.367)">
      <g id="Group_1676" data-name="Group 1676">
        <path id="Path_10950" data-name="Path 10950" class="cls-1" d="M49.976,279.566A49.552,49.552,0,0,0,19.2,290.321a4.076,4.076,0,0,0,5.082,6.374,40.807,40.807,0,0,1,25.695-8.978A41.3,41.3,0,0,1,91.227,328.97c0,30.635-31.976,60.037-41.254,67.921-9.284-7.878-41.25-37.241-41.25-67.921a41.2,41.2,0,0,1,5.758-21.035,4.076,4.076,0,0,0-7.009-4.163,49.357,49.357,0,0,0-6.9,25.2c0,39.666,44.994,74.94,46.91,76.422a4.076,4.076,0,0,0,4.989,0c1.915-1.482,46.91-36.756,46.91-76.422A49.462,49.462,0,0,0,49.976,279.566Z" transform="translate(-0.572 -279.566)"/>
      </g>
    </g>
    <g id="Group_1679" data-name="Group 1679" transform="translate(27.82 179.616)">
      <g id="Group_1678" data-name="Group 1678">
        <path id="Path_10951" data-name="Path 10951" class="cls-1" d="M72.722,329.564a22.156,22.156,0,1,0,22.156,22.155A22.18,22.18,0,0,0,72.722,329.564Zm0,36.159a14,14,0,1,1,14-14A14.02,14.02,0,0,1,72.723,365.723Z" transform="translate(-50.567 -329.564)"/>
      </g>
    </g>
    <g id="Group_1681" data-name="Group 1681" transform="translate(184.884 60.852)">
      <g id="Group_1680" data-name="Group 1680">
        <path id="Path_10952" data-name="Path 10952" class="cls-1" d="M385.807,111.652a47.108,47.108,0,0,0-47.055,47.055c0,15.973,7.55,33.09,22.44,50.874a159.135,159.135,0,0,0,22.12,21.755,4.076,4.076,0,0,0,4.989,0,159.506,159.506,0,0,0,25.866-26.422,4.076,4.076,0,1,0-6.465-4.966,156.578,156.578,0,0,1-21.892,22.883C376.86,215.2,346.9,187.516,346.9,158.707a38.9,38.9,0,1,1,77.806,0c0,8.746-2.784,18.189-8.273,28.069a4.076,4.076,0,0,0,7.125,3.959c6.171-11.106,9.3-21.882,9.3-32.029A47.107,47.107,0,0,0,385.807,111.652Z" transform="translate(-338.752 -111.652)"/>
      </g>
    </g>
    <g id="Group_1683" data-name="Group 1683" transform="translate(210.721 86.688)">
      <g id="Group_1682" data-name="Group 1682">
        <path id="Path_10953" data-name="Path 10953" class="cls-1" d="M407.377,159.058a21.218,21.218,0,1,0,21.218,21.218A21.242,21.242,0,0,0,407.377,159.058Zm0,34.284a13.066,13.066,0,1,1,13.066-13.066A13.081,13.081,0,0,1,407.377,193.342Z" transform="translate(-386.159 -159.058)"/>
      </g>
    </g>
    <g id="Group_1685" data-name="Group 1685" transform="translate(44.385 23.534)">
      <g id="Group_1684" data-name="Group 1684">
        <path id="Path_10954" data-name="Path 10954" class="cls-1" d="M100.651,43.181a19.69,19.69,0,1,0,19.69,19.691A19.712,19.712,0,0,0,100.651,43.181Zm0,31.229a11.538,11.538,0,1,1,11.538-11.538A11.551,11.551,0,0,1,100.65,74.41Z" transform="translate(-80.961 -43.181)"/>
      </g>
    </g>
    <g id="Group_1687" data-name="Group 1687" transform="translate(20.85)">
      <g id="Group_1686" data-name="Group 1686">
        <path id="Path_10955" data-name="Path 10955" class="cls-1" d="M81,0A43.274,43.274,0,0,0,37.779,43.225a56.782,56.782,0,0,0,5.505,23.386,4.076,4.076,0,1,0,7.424-3.367,48.745,48.745,0,0,1-4.776-20.019,35.073,35.073,0,1,1,70.146,0c0,25.846-26.683,50.742-35.076,57.933a138.788,138.788,0,0,1-22.449-24.39,4.076,4.076,0,0,0-6.673,4.683,144.307,144.307,0,0,0,26.629,28.218,4.076,4.076,0,0,0,4.989,0A145.4,145.4,0,0,0,103.7,89.8c13.62-16.267,20.526-31.937,20.526-46.573A43.276,43.276,0,0,0,81,0Z" transform="translate(-37.779)"/>
      </g>
    </g>
    <g id="Group_1689" data-name="Group 1689" transform="translate(108.242 125.834)">
      <g id="Group_1688" data-name="Group 1688">
        <path id="Path_10956" data-name="Path 10956" class="cls-1" d="M208.817,233.4l-4.979-2.177a4.076,4.076,0,0,0-3.266,7.469l4.979,2.177a4.076,4.076,0,1,0,3.266-7.469Z" transform="translate(-198.128 -230.884)"/>
      </g>
    </g>
    <g id="Group_1691" data-name="Group 1691" transform="translate(187.919 160.664)">
      <g id="Group_1690" data-name="Group 1690">
        <path id="Path_10957" data-name="Path 10957" class="cls-1" d="M355.01,297.311l-4.979-2.177a4.076,4.076,0,1,0-3.266,7.469l4.979,2.177a4.076,4.076,0,1,0,3.266-7.469Z" transform="translate(-344.321 -294.791)"/>
      </g>
    </g>
    <g id="Group_1693" data-name="Group 1693" transform="translate(88.323 117.127)">
      <g id="Group_1692" data-name="Group 1692">
        <path id="Path_10958" data-name="Path 10958" class="cls-1" d="M172.268,217.427l-4.98-2.177a4.076,4.076,0,0,0-3.265,7.469L169,224.9a4.076,4.076,0,1,0,3.265-7.469Z" transform="translate(-161.579 -214.908)"/>
      </g>
    </g>
    <g id="Group_1695" data-name="Group 1695" transform="translate(68.404 108.419)">
      <g id="Group_1694" data-name="Group 1694">
        <path id="Path_10959" data-name="Path 10959" class="cls-1" d="M135.72,201.45l-4.98-2.177a4.076,4.076,0,1,0-3.265,7.469l4.98,2.177a4.076,4.076,0,1,0,3.265-7.469Z" transform="translate(-125.031 -198.931)"/>
      </g>
    </g>
    <g id="Group_1697" data-name="Group 1697" transform="translate(207.838 169.372)">
      <g id="Group_1696" data-name="Group 1696">
        <path id="Path_10960" data-name="Path 10960" class="cls-1" d="M391.558,313.287l-4.98-2.177a4.076,4.076,0,1,0-3.265,7.469l4.98,2.177a4.076,4.076,0,1,0,3.265-7.469Z" transform="translate(-380.869 -310.767)"/>
      </g>
    </g>
    <g id="Group_1699" data-name="Group 1699" transform="translate(168 151.957)">
      <g id="Group_1698" data-name="Group 1698">
        <path id="Path_10961" data-name="Path 10961" class="cls-1" d="M318.462,281.333l-4.98-2.177a4.076,4.076,0,1,0-3.265,7.469l4.98,2.177a4.076,4.076,0,1,0,3.265-7.469Z" transform="translate(-307.773 -278.814)"/>
      </g>
    </g>
    <g id="Group_1701" data-name="Group 1701" transform="translate(148.08 143.25)">
      <g id="Group_1700" data-name="Group 1700">
        <path id="Path_10962" data-name="Path 10962" class="cls-1" d="M281.912,265.357l-4.98-2.177a4.076,4.076,0,1,0-3.265,7.469l4.98,2.177a4.076,4.076,0,1,0,3.265-7.469Z" transform="translate(-271.223 -262.838)"/>
      </g>
    </g>
    <g id="Group_1703" data-name="Group 1703" transform="translate(128.161 134.541)">
      <g id="Group_1702" data-name="Group 1702">
        <path id="Path_10963" data-name="Path 10963" class="cls-1" d="M245.364,249.38l-4.98-2.177a4.076,4.076,0,1,0-3.265,7.469l4.98,2.177a4.076,4.076,0,1,0,3.265-7.469Z" transform="translate(-234.675 -246.86)"/>
      </g>
    </g>
    <g id="Group_1705" data-name="Group 1705" transform="translate(62.131 265.476)">
      <g id="Group_1704" data-name="Group 1704">
        <path id="Path_10964" data-name="Path 10964" class="cls-1" d="M125.991,489.262a4.076,4.076,0,0,0-5.514-1.681l-4.8,2.556a4.077,4.077,0,1,0,3.834,7.2l4.8-2.556A4.077,4.077,0,0,0,125.991,489.262Z" transform="translate(-113.521 -487.102)"/>
      </g>
    </g>
    <g id="Group_1707" data-name="Group 1707" transform="translate(81.314 255.251)">
      <g id="Group_1706" data-name="Group 1706">
        <path id="Path_10965" data-name="Path 10965" class="cls-1" d="M161.19,470.5a4.077,4.077,0,0,0-5.514-1.68l-4.8,2.556a4.076,4.076,0,1,0,3.834,7.2l4.8-2.556A4.078,4.078,0,0,0,161.19,470.5Z" transform="translate(-148.72 -468.341)"/>
      </g>
    </g>
    <g id="Group_1709" data-name="Group 1709" transform="translate(100.499 245.026)">
      <g id="Group_1708" data-name="Group 1708">
        <path id="Path_10966" data-name="Path 10966" class="cls-1" d="M196.39,451.74a4.074,4.074,0,0,0-5.514-1.681l-4.8,2.556a4.077,4.077,0,1,0,3.834,7.2l4.8-2.556A4.078,4.078,0,0,0,196.39,451.74Z" transform="translate(-183.92 -449.579)"/>
      </g>
    </g>
    <g id="Group_1711" data-name="Group 1711" transform="translate(196.42 193.899)">
      <g id="Group_1710" data-name="Group 1710">
        <path id="Path_10967" data-name="Path 10967" class="cls-1" d="M372.39,357.931a4.076,4.076,0,0,0-5.515-1.68l-4.8,2.556a4.077,4.077,0,1,0,3.834,7.2l4.8-2.556A4.079,4.079,0,0,0,372.39,357.931Z" transform="translate(-359.919 -355.77)"/>
      </g>
    </g>
    <g id="Group_1713" data-name="Group 1713" transform="translate(215.605 183.674)">
      <g id="Group_1712" data-name="Group 1712">
        <path id="Path_10968" data-name="Path 10968" class="cls-1" d="M407.59,339.169a4.077,4.077,0,0,0-5.515-1.681l-4.8,2.556a4.077,4.077,0,1,0,3.834,7.2l4.8-2.556A4.077,4.077,0,0,0,407.59,339.169Z" transform="translate(-395.119 -337.009)"/>
      </g>
    </g>
    <g id="Group_1715" data-name="Group 1715" transform="translate(177.236 204.124)">
      <g id="Group_1714" data-name="Group 1714">
        <path id="Path_10969" data-name="Path 10969" class="cls-1" d="M337.19,376.692a4.073,4.073,0,0,0-5.514-1.68l-4.8,2.556a4.076,4.076,0,1,0,3.834,7.194l4.8-2.556A4.076,4.076,0,0,0,337.19,376.692Z" transform="translate(-324.72 -374.531)"/>
      </g>
    </g>
    <g id="Group_1717" data-name="Group 1717" transform="translate(119.683 234.8)">
      <g id="Group_1716" data-name="Group 1716">
        <path id="Path_10970" data-name="Path 10970" class="cls-1" d="M231.589,432.977a4.076,4.076,0,0,0-5.514-1.68l-4.8,2.556a4.076,4.076,0,1,0,3.834,7.195l4.8-2.556A4.077,4.077,0,0,0,231.589,432.977Z" transform="translate(-219.119 -430.817)"/>
      </g>
    </g>
    <g id="Group_1719" data-name="Group 1719" transform="translate(158.053 214.349)">
      <g id="Group_1718" data-name="Group 1718">
        <path id="Path_10971" data-name="Path 10971" class="cls-1" d="M301.99,395.453a4.074,4.074,0,0,0-5.514-1.68l-4.8,2.556a4.076,4.076,0,1,0,3.834,7.194l4.8-2.556A4.076,4.076,0,0,0,301.99,395.453Z" transform="translate(-289.521 -393.293)"/>
      </g>
    </g>
    <g id="Group_1721" data-name="Group 1721" transform="translate(138.868 224.574)">
      <g id="Group_1720" data-name="Group 1720">
        <path id="Path_10972" data-name="Path 10972" class="cls-1" d="M266.79,414.216a4.074,4.074,0,0,0-5.514-1.68l-4.8,2.556a4.076,4.076,0,1,0,3.834,7.194l4.8-2.556A4.075,4.075,0,0,0,266.79,414.216Z" transform="translate(-254.32 -412.055)"/>
      </g>
    </g>
  </g>
</svg>
