<svg xmlns="http://www.w3.org/2000/svg" viewBox="0 0 181.454 120">
  <defs>
    <style>
      .cls-1 {
        fill: #333;
      }
    </style>
  </defs>
  <g id="bus" transform="translate(0 -69.516)">
    <path id="Path_48" data-name="Path 48" class="cls-1" d="M87.139,275.387a9.113,9.113,0,1,0,9.113,9.113A9.124,9.124,0,0,0,87.139,275.387Zm0,11.6a2.483,2.483,0,1,1,2.483-2.483A2.486,2.486,0,0,1,87.139,286.984Z" transform="translate(-43.538 -114.874)"/>
    <path id="Path_49" data-name="Path 49" class="cls-1" d="M300.371,275.387a9.113,9.113,0,1,0,9.113,9.113A9.124,9.124,0,0,0,300.371,275.387Zm0,11.6a2.483,2.483,0,1,1,2.483-2.483A2.486,2.486,0,0,1,300.371,286.984Z" transform="translate(-162.519 -114.874)"/>
    <path id="Path_50" data-name="Path 50" class="cls-1" d="M177.246,153.635V88.652a19.157,19.157,0,0,0-19.135-19.135H33.934A29.76,29.76,0,0,0,4.208,99.243v54.392A10.5,10.5,0,0,0,0,162.038v.407a10.51,10.51,0,0,0,10.5,10.5h13.5a19.886,19.886,0,0,0,39.216,0h55.035a19.886,19.886,0,0,0,39.216,0h13.5a10.51,10.51,0,0,0,10.5-10.5v-.407A10.5,10.5,0,0,0,177.246,153.635Zm-6.63-34.421h-9.1a.845.845,0,0,1-.844-.844V92.811a.845.845,0,0,1,.844-.844h9.1ZM6.63,162.444v-.407a3.874,3.874,0,0,1,3.868-3.872H27.361a19.779,19.779,0,0,0-3.368,8.146H10.5A3.872,3.872,0,0,1,6.63,162.444ZM43.6,182.886a13.26,13.26,0,1,1,13.259-13.26A13.275,13.275,0,0,1,43.6,182.886Zm74.643-16.574H63.21a19.871,19.871,0,0,0-27.858-14.776H10.838V99.243a23.122,23.122,0,0,1,23.1-23.1H158.111a12.525,12.525,0,0,1,12.056,9.19h-8.649a7.483,7.483,0,0,0-7.474,7.474V118.37a7.483,7.483,0,0,0,7.474,7.474h9.1v25.692H146.1a19.871,19.871,0,0,0-27.858,14.776Zm19.608,16.574a13.26,13.26,0,1,1,13.259-13.26A13.275,13.275,0,0,1,137.852,182.886Zm36.971-20.442a3.872,3.872,0,0,1-3.868,3.868h-13.5a19.779,19.779,0,0,0-3.368-8.146h16.863a3.874,3.874,0,0,1,3.868,3.872Z" transform="translate(0 0)"/>
    <path id="Path_51" data-name="Path 51" class="cls-1" d="M167.9,138.341V112.782a7.483,7.483,0,0,0-7.474-7.474H58.352A16.012,16.012,0,0,0,42.358,121.3v17.039a7.483,7.483,0,0,0,7.474,7.474H160.423A7.483,7.483,0,0,0,167.9,138.341Zm-59.454-26.4H134.5v27.247H108.443Zm-6.63,27.247H75.752V111.938h26.061Zm-52.825-.844V121.3a9.374,9.374,0,0,1,9.364-9.364h10.77v27.247H49.832A.845.845,0,0,1,48.988,138.341Zm112.279,0a.845.845,0,0,1-.844.844H141.134V111.938h19.289a.845.845,0,0,1,.844.844Z" transform="translate(-23.635 -19.972)"/>
    <path id="Path_52" data-name="Path 52" class="cls-1" d="M365.352,231.323a3.315,3.315,0,0,0,3.315-3.315v-2.947a3.315,3.315,0,0,0-6.63,0v2.947A3.315,3.315,0,0,0,365.352,231.323Z" transform="translate(-202.013 -84.943)"/>
  </g>
</svg>
