<svg xmlns="http://www.w3.org/2000/svg" viewBox="0 0 109.214 120">
  <defs>
    <style>
      .cls-1 {
        fill: #333;
      }
    </style>
  </defs>
  <g id="city" transform="translate(-23.011)">
    <g id="Group_8" data-name="Group 8" transform="translate(23.011)">
      <g id="Group_7" data-name="Group 7">
        <path id="Path_17" data-name="Path 17" class="cls-1" d="M130.2,115.955h-3.371V10.112a2.022,2.022,0,0,0-2.022-2.022H87.056a2.022,2.022,0,0,0-2.022,2.022v8.764H80.989V10.112A2.022,2.022,0,0,0,78.966,8.09H70.2V2.022a2.022,2.022,0,1,0-4.045,0V8.09H57.393a2.022,2.022,0,0,0-2.022,2.022v8.764H49.3A2.022,2.022,0,0,0,47.281,20.9V37.753H30.427A2.022,2.022,0,0,0,28.4,39.775v76.18H25.033a2.023,2.023,0,0,0,0,4.045H130.2a2.022,2.022,0,0,0,0-4.045ZM59.416,12.135H76.944v6.742H59.416Zm-6.742,103.82H51.326v-3.371a2.022,2.022,0,0,0-4.045,0v3.371H45.932v-6.742h6.742Zm13.483-51.91v51.91H56.719v-8.764a2.022,2.022,0,0,0-2.022-2.022H43.91a2.022,2.022,0,0,0-2.022,2.022v8.764H32.449V41.8H66.157ZM68.18,37.753H51.326V22.921H85.033v39.1H70.2V55.281H76.27a2.022,2.022,0,0,0,0-4.045H70.2V44.494H76.27a2.022,2.022,0,0,0,0-4.045H70.2v-.674A2.022,2.022,0,0,0,68.18,37.753Zm35.73,78.2H70.2V66.068H103.91Zm18.876,0H107.955V61.348a2.022,2.022,0,0,0-4.045,0v.674H99.865v-.674a2.022,2.022,0,0,0-4.045,0v.674H89.079V12.135h33.708v103.82Z" transform="translate(-23.011)"/>
        <path id="Path_18" data-name="Path 18" class="cls-1" d="M255.146,340.947a2.022,2.022,0,0,0,2.022-2.022V301.172a2.022,2.022,0,1,0-4.045,0v37.753A2.022,2.022,0,0,0,255.146,340.947Z" transform="translate(-199.191 -229.036)"/>
        <path id="Path_19" data-name="Path 19" class="cls-1" d="M289.663,340.947a2.022,2.022,0,0,0,2.022-2.022V301.172a2.022,2.022,0,1,0-4.045,0v37.753A2.022,2.022,0,0,0,289.663,340.947Z" transform="translate(-225.618 -229.036)"/>
        <path id="Path_20" data-name="Path 20" class="cls-1" d="M324.18,340.947a2.023,2.023,0,0,0,2.023-2.022V301.172a2.022,2.022,0,1,0-4.045,0v37.753A2.022,2.022,0,0,0,324.18,340.947Z" transform="translate(-252.045 -229.036)"/>
        <path id="Path_21" data-name="Path 21" class="cls-1" d="M335.686,87.281a2.022,2.022,0,0,0,2.022-2.022v-2.7a2.022,2.022,0,0,0-4.045,0v2.7A2.022,2.022,0,0,0,335.686,87.281Z" transform="translate(-260.854 -61.663)"/>
        <path id="Path_22" data-name="Path 22" class="cls-1" d="M370.2,87.281a2.022,2.022,0,0,0,2.023-2.022v-2.7a2.022,2.022,0,0,0-4.045,0v2.7A2.022,2.022,0,0,0,370.2,87.281Z" transform="translate(-287.281 -61.663)"/>
        <path id="Path_23" data-name="Path 23" class="cls-1" d="M404.719,87.281a2.022,2.022,0,0,0,2.022-2.022v-2.7a2.022,2.022,0,0,0-4.045,0v2.7A2.022,2.022,0,0,0,404.719,87.281Z" transform="translate(-313.708 -61.663)"/>
        <path id="Path_24" data-name="Path 24" class="cls-1" d="M335.686,144.809a2.022,2.022,0,0,0,2.022-2.022v-2.7a2.022,2.022,0,0,0-4.045,0v2.7A2.022,2.022,0,0,0,335.686,144.809Z" transform="translate(-260.854 -105.708)"/>
        <path id="Path_25" data-name="Path 25" class="cls-1" d="M370.2,144.809a2.022,2.022,0,0,0,2.023-2.022v-2.7a2.022,2.022,0,0,0-4.045,0v2.7A2.022,2.022,0,0,0,370.2,144.809Z" transform="translate(-287.281 -105.708)"/>
        <path id="Path_26" data-name="Path 26" class="cls-1" d="M404.719,144.809a2.022,2.022,0,0,0,2.022-2.022v-2.7a2.022,2.022,0,0,0-4.045,0v2.7A2.022,2.022,0,0,0,404.719,144.809Z" transform="translate(-313.708 -105.708)"/>
        <path id="Path_27" data-name="Path 27" class="cls-1" d="M335.686,202.338a2.022,2.022,0,0,0,2.022-2.022v-2.7a2.022,2.022,0,1,0-4.045,0v2.7A2.022,2.022,0,0,0,335.686,202.338Z" transform="translate(-260.854 -149.753)"/>
        <path id="Path_28" data-name="Path 28" class="cls-1" d="M370.2,202.338a2.022,2.022,0,0,0,2.023-2.022v-2.7a2.022,2.022,0,1,0-4.045,0v2.7A2.022,2.022,0,0,0,370.2,202.338Z" transform="translate(-287.281 -149.753)"/>
        <path id="Path_29" data-name="Path 29" class="cls-1" d="M404.719,202.338a2.022,2.022,0,0,0,2.022-2.022v-2.7a2.022,2.022,0,0,0-4.045,0v2.7A2.022,2.022,0,0,0,404.719,202.338Z" transform="translate(-313.708 -149.753)"/>
        <path id="Path_30" data-name="Path 30" class="cls-1" d="M94.067,225.349a2.022,2.022,0,0,0,2.022-2.022v-2.7a2.022,2.022,0,1,0-4.045,0v2.7A2.023,2.023,0,0,0,94.067,225.349Z" transform="translate(-75.865 -167.371)"/>
        <path id="Path_31" data-name="Path 31" class="cls-1" d="M128.584,225.349a2.022,2.022,0,0,0,2.022-2.022v-2.7a2.022,2.022,0,1,0-4.045,0v2.7A2.022,2.022,0,0,0,128.584,225.349Z" transform="translate(-102.292 -167.371)"/>
        <path id="Path_32" data-name="Path 32" class="cls-1" d="M163.1,225.349a2.022,2.022,0,0,0,2.022-2.022v-2.7a2.022,2.022,0,1,0-4.045,0v2.7A2.022,2.022,0,0,0,163.1,225.349Z" transform="translate(-128.719 -167.371)"/>
        <path id="Path_33" data-name="Path 33" class="cls-1" d="M94.067,282.876a2.022,2.022,0,0,0,2.022-2.022v-2.7a2.022,2.022,0,0,0-4.045,0v2.7A2.022,2.022,0,0,0,94.067,282.876Z" transform="translate(-75.865 -211.416)"/>
        <path id="Path_34" data-name="Path 34" class="cls-1" d="M128.584,282.876a2.022,2.022,0,0,0,2.022-2.022v-2.7a2.022,2.022,0,0,0-4.045,0v2.7A2.022,2.022,0,0,0,128.584,282.876Z" transform="translate(-102.292 -211.416)"/>
        <path id="Path_35" data-name="Path 35" class="cls-1" d="M163.1,282.876a2.022,2.022,0,0,0,2.022-2.022v-2.7a2.022,2.022,0,0,0-4.045,0v2.7A2.022,2.022,0,0,0,163.1,282.876Z" transform="translate(-128.719 -211.416)"/>
        <path id="Path_36" data-name="Path 36" class="cls-1" d="M94.067,340.4a2.022,2.022,0,0,0,2.022-2.022v-2.7a2.022,2.022,0,1,0-4.045,0v2.7A2.022,2.022,0,0,0,94.067,340.4Z" transform="translate(-75.865 -255.461)"/>
        <path id="Path_37" data-name="Path 37" class="cls-1" d="M128.584,340.4a2.022,2.022,0,0,0,2.022-2.022v-2.7a2.022,2.022,0,1,0-4.045,0v2.7A2.022,2.022,0,0,0,128.584,340.4Z" transform="translate(-102.292 -255.461)"/>
        <path id="Path_38" data-name="Path 38" class="cls-1" d="M163.1,340.4a2.022,2.022,0,0,0,2.022-2.022v-2.7a2.022,2.022,0,1,0-4.045,0v2.7A2.022,2.022,0,0,0,163.1,340.4Z" transform="translate(-128.719 -255.461)"/>
        <path id="Path_39" data-name="Path 39" class="cls-1" d="M94.067,397.933a2.022,2.022,0,0,0,2.022-2.023v-2.7a2.022,2.022,0,0,0-4.045,0v2.7A2.022,2.022,0,0,0,94.067,397.933Z" transform="translate(-75.865 -299.506)"/>
        <path id="Path_40" data-name="Path 40" class="cls-1" d="M128.584,397.933a2.022,2.022,0,0,0,2.022-2.023v-2.7a2.022,2.022,0,0,0-4.045,0v2.7A2.022,2.022,0,0,0,128.584,397.933Z" transform="translate(-102.292 -299.506)"/>
        <path id="Path_41" data-name="Path 41" class="cls-1" d="M163.1,397.933a2.022,2.022,0,0,0,2.022-2.023v-2.7a2.022,2.022,0,0,0-4.045,0v2.7A2.022,2.022,0,0,0,163.1,397.933Z" transform="translate(-128.719 -299.506)"/>
        <path id="Path_42" data-name="Path 42" class="cls-1" d="M404.719,259.866a2.022,2.022,0,0,0,2.022-2.022v-2.7a2.022,2.022,0,0,0-4.045,0v2.7A2.022,2.022,0,0,0,404.719,259.866Z" transform="translate(-313.708 -193.798)"/>
        <path id="Path_43" data-name="Path 43" class="cls-1" d="M404.719,317.393a2.022,2.022,0,0,0,2.022-2.022v-2.7a2.022,2.022,0,0,0-4.045,0v2.7A2.022,2.022,0,0,0,404.719,317.393Z" transform="translate(-313.708 -237.843)"/>
        <path id="Path_44" data-name="Path 44" class="cls-1" d="M404.719,374.922a2.022,2.022,0,0,0,2.022-2.023v-2.7a2.022,2.022,0,0,0-4.045,0v2.7A2.022,2.022,0,0,0,404.719,374.922Z" transform="translate(-313.708 -281.888)"/>
        <path id="Path_45" data-name="Path 45" class="cls-1" d="M404.719,432.449a2.022,2.022,0,0,0,2.022-2.022v-2.7a2.022,2.022,0,0,0-4.045,0v2.7A2.022,2.022,0,0,0,404.719,432.449Z" transform="translate(-313.708 -325.933)"/>
        <path id="Path_46" data-name="Path 46" class="cls-1" d="M192.809,128.584a2.022,2.022,0,0,0-2.022-2.022h-16.18a2.022,2.022,0,1,0,0,4.045h16.18A2.022,2.022,0,0,0,192.809,128.584Z" transform="translate(-137.528 -96.899)"/>
      </g>
    </g>
  </g>
</svg>
