<svg xmlns="http://www.w3.org/2000/svg" viewBox="0 0 160.619 120">
  <defs>
    <style>
      .cls-1 {
        fill: #333;
      }
    </style>
  </defs>
  <g id="flight" transform="translate(0 -61.426)">
    <rect id="Rectangle_8" data-name="Rectangle 8" class="cls-1" width="152.09" height="6.613" transform="translate(5.222 174.813)"/>
    <path id="Path_47" data-name="Path 47" class="cls-1" d="M155.01,70.643c-11.046-6.438-23.6-3.018-32.179.984L97.247,83.556l-44-22.13-26.2,1.126L63.377,99.387l-23.156,11L16.13,101.218,0,108.739l14.577,18.1c-1.54,1.837-2.936,4.424-1.669,7.141,1.655,3.548,6.546,5.337,14.569,5.336q2.468,0,5.33-.226c8.807-.7,18.355-2.944,24.325-5.728l91.451-42.644c7.9-3.684,11.833-7.551,12.028-11.825C160.713,76.679,159.823,73.447,155.01,70.643Zm-9.222,14.085L54.337,127.372c-5.086,2.372-13.437,4.359-21.274,5.063-8.011.719-12.294-.184-13.721-.951a12.643,12.643,0,0,1,1.856-1.926l2.375-2.091-13.129-16.3,5.947-2.773,24.117,9.179,34.111-16.2-32.4-32.849,9.6-.412L97.138,90.9l28.487-13.283c10.4-4.851,19.17-5.276,26.055-1.264h0c1.735,1.011,2.341,1.893,2.325,2.238C154,78.618,153.806,80.989,145.788,84.727Z"/>
  </g>
</svg>
