<svg xmlns="http://www.w3.org/2000/svg" xmlns:xlink="http://www.w3.org/1999/xlink" viewBox="0 0 141.517 79.237">
  <defs>
    <style>
      .cls-1 {
        fill: #225894;
      }

      .cls-2 {
        fill: url(#radial-gradient);
      }

      .cls-3 {
        fill: url(#radial-gradient-2);
      }

      .cls-4 {
        fill: url(#radial-gradient-3);
      }

      .cls-5 {
        fill: #fff;
      }
    </style>
    <radialGradient id="radial-gradient" cx="12.641" cy="20.987" r="26.25" gradientTransform="translate(-0.462 -0.77) scale(1.037 1.037)" gradientUnits="userSpaceOnUse">
      <stop offset="0" stop-color="#95a5cd"/>
      <stop offset="1" stop-color="#5d4095"/>
    </radialGradient>
    <radialGradient id="radial-gradient-2" cx="70.196" cy="-3.736" r="0.103" gradientTransform="translate(-11.596 22.346) scale(1.377 1.377)" gradientUnits="userSpaceOnUse">
      <stop offset="0" stop-color="#7d95c7"/>
      <stop offset="1" stop-color="#5060a8"/>
    </radialGradient>
    <radialGradient id="radial-gradient-3" cx="143.476" cy="155.306" fx="132.80782285062196" fy="132.72676638965004" r="93.685" gradientTransform="translate(35.848 3.568) scale(0.267 0.267)" gradientUnits="userSpaceOnUse">
      <stop offset="0" stop-color="#95a5cd"/>
      <stop offset="1" stop-color="#382f79"/>
    </radialGradient>
  </defs>
  <g id="Group_2" data-name="Group 2" transform="translate(-511 -275)">
    <path id="Path_1" data-name="Path 1" class="cls-1" d="M132.6,165" transform="translate(424.981 167.992)"/>
    <path id="Path_2" data-name="Path 2" class="cls-2" d="M72.747,14.968S47.45-12.894,17.2,7.273C17.2,7.273-4.621,19.922.93,52.6c0,0,2.108,13.562,16.408,22.733,0,0-13.387-14.546-11.735-30.814,0,0,.457-16.584,11.806-26.914C17.374,17.568,37.366-6.219,72.747,14.968Z" transform="translate(510.974 275.054)"/>
    <path id="Path_3" data-name="Path 3" class="cls-3" d="M51.947,55.6S32.693,72.36,41.9,95.057c0,0,11.138,27.9,40.863,18.165,0,0-17.076,1.792-28.6-9.733C54.16,103.455,31.885,86.906,51.947,55.6Z" transform="translate(485.431 238.954)"/>
    <path id="Path_4" data-name="Path 4" class="cls-4" d="M94.6,156.645s16.268,10.927,33.414,2.495c0,0,10.33-5.305,16.654-7.414,0,0,10.154-3.2,18.165.492,0,0-6.816-.105-16.97,6.008,0,0-11.841,8.749-19.887,9.733A31.879,31.879,0,0,1,94.6,156.645Z" transform="translate(449.629 177.436)"/>
    <g id="Group_1" data-name="Group 1" transform="translate(540.153 304.954)">
      <g id="Group_1-2" data-name="Group 1" transform="translate(0 0)">
        <path id="Path_7" data-name="Path 7" class="cls-5" d="M96.738,96.873c0,1.3-2.776,4.357-8.889,4.708-1.616.105-3.9-.457-3.9-2.53,0-.738-.105-.843,2.53-4.322-.632-.035-2.073-.105-2.073-.878,0-.984,3.162-1.019,3.865-1.23,1.476-1.441,2.987-3.338,5.235-3.338-.176.386-.316.668-2.214,2.881,5.13-.7,6.324-2.249,6.289-2.846-.035-.492-.668-1.3-3.3-1.124a27.522,27.522,0,0,0-6.36,1.581c.141.07.316.176.316.351,0,.351-.527.492-.808.527a14.085,14.085,0,0,0-3.162.878,2.294,2.294,0,0,1-.7.176c-.386,0-.562-.211-.562-.6a5.483,5.483,0,0,1,1.054-1.9,5.146,5.146,0,0,1,1.9-1.792A31.409,31.409,0,0,1,94.77,85.7c3.9,0,4.849,1.546,4.849,2.776,0,3.689-6.887,4.6-9.522,5.13l-.457.422C91.187,94.238,96.738,94.695,96.738,96.873Zm-9.416-.422c-.281.316-.808.808-.808,1.3,0,.984,1.792,1.265,2.53,1.265,2-.035,5.165-1.511,5.165-2.389,0-1.195-4.673-1.511-5.587-1.511Z" transform="translate(-83 -85.524)"/>
        <path id="Path_8" data-name="Path 8" class="cls-5" d="M132.243,100.881c-1.265,1.3-3.373,3.584-5.341,3.584-1.651,0-2-1.616-2-2.951a11.135,11.135,0,0,1,2.495-6.746c2-2.459,4.146-4.568,4.884-4.568.386,0,.492.562.457.843-.176,2.143-.738,4.146-5.657,8.924a2.58,2.58,0,0,0-.176,1.581c.211.527.527.984,1.124.984,1.265,0,2.987-1.441,3.9-2.284Zm-4.673-3.057a14.422,14.422,0,0,0,3.443-4.954c-1.124.527-2.389,2.6-3.478,4.919Z" transform="translate(-110.178 -88.443)"/>
        <path id="Path_9" data-name="Path 9" class="cls-5" d="M150.481,108.1c.492-.422,2.705-2.6,3.268-2.6.176,0,.422.07.527,1.265.035.527-.562,1.054-.914,1.37-.738.668-2.354,2.459-2.354,3.478,0,.351.211.492.562.492.878,0,2.811-1.581,3.478-2.143l.141.984c-1.159,1.124-3.549,3.724-5.235,3.724a1.38,1.38,0,0,1-1.335-1.511,5.056,5.056,0,0,1,.492-1.9l-.035-.035c-.878.773-2.389,2.811-3.654,2.811-1.124,0-1.722-1.265-1.722-2.249a7.194,7.194,0,0,1,3.162-5.411,1.588,1.588,0,0,1,.984-.246c.316,0,1.476-.211,1.37.492-.035.351-.668.984-.914,1.195a7.531,7.531,0,0,1-1.722,1.616,2.288,2.288,0,0,0-1.265,1.968c0,.105.035.351.176.351a6.453,6.453,0,0,0,2.705-1.616Z" transform="translate(-122.373 -98.367)"/>
        <path id="Path_10" data-name="Path 10" class="cls-5" d="M183.669,110.9c-1.37,1.616-3.865,3.759-6.114,3.759-1.651,0-2.424-1.476-2.459-2.987-.105-2.987,3.2-6.008,6.149-5.973.738,0,1.616.176,1.616,1.089,0,1.124-1.124,2.776-5.481,4.216l-.035.492c-.07.878.668,1.159,1.405,1.159,1.616,0,3.514-1.651,4.708-2.6Zm-2.811-3.654c0-.176-.105-.281-.281-.246a4.888,4.888,0,0,0-3.057,2.881C179.523,109.213,180.858,107.632,180.858,107.245Z" transform="translate(-142.736 -98.497)"/>
        <path id="Path_11" data-name="Path 11" class="cls-5" d="M226.346,98.762a.453.453,0,0,1,.422.422,6.114,6.114,0,0,1-1.159,1.827c-.281.422-.773,1.054-1.335,1.054s-.773-.316-.773-.808c0-.984,1.616-3.478,2.143-4.427-.527-.351-1.019-.738-1.019-1.441,0-1.3,2.67-1.932,3.619-2.214l3.619-4.778c-3.97.07-7.133,1.511-7.8,1.511-.141,0-.351-.035-.351-.211,0-.562,1.3-2.284,1.686-2.776a2.959,2.959,0,0,1,1.722-.914,22.482,22.482,0,0,1,6.114-.808c5.622,0,7.2,1.827,7.2,4.638,0,4.849-5.868,8.222-13.141,7.414Zm3.97-5.9c.843,0,1.757-.316,1.757.105,0,.457-1.932.562-2.284.808l-.492.738a6.921,6.921,0,0,0,2.354.211c4.462-.246,7.378-3.478,7.133-4.919-.246-1.37-4.532-1.651-5.551-1.651a2.322,2.322,0,0,1-.492,1.37Z" transform="translate(-174.135 -85.2)"/>
        <path id="Path_12" data-name="Path 12" class="cls-5" d="M270.889,112.855a8.016,8.016,0,0,1-2.389,1.511c-.632,0-1.968-1.511-2-2.67-.105-2.846,5.8-5.727,8.432-5.8a1.369,1.369,0,0,1,1.476,1.089c0,.281-.6.492-.808.562a.909.909,0,0,1,.668.914c0,.738-1.968,2.319-1.968,3.373,0,.386.351.527.7.527.949,0,2.249-1.159,3.232-1.827l.176.843c-.984,1.124-4.005,3.549-5.13,3.549a1.079,1.079,0,0,1-1.089-1.195,6.945,6.945,0,0,1,.843-2.53l-.035-.035Zm-2.776-.562c.035.105.105.527.457.457.457-.105,1.159-.035,5.657-4.568l-.035-.035C268.781,109.763,268.114,111.168,268.114,112.293Z" transform="translate(-202.024 -98.625)"/>
        <path id="Path_13" data-name="Path 13" class="cls-5" d="M302.265,109.762c-.492.351-.914.7-.914,1.335,0,.527.562,1.23,1.722,1.23,1.722,0,3.689-1.581,5.024-2.6l.281.878c-1.37,1.476-3.935,3.724-6.078,3.724-1.757,0-2.6-1.616-2.6-3.3,0-1.9.668-2.6,2.143-3.724,1.019-.773,3.2-2,4.462-2,.7,0,1.019.351,1.019,1.054a4.066,4.066,0,0,1-2.389,2.987c-.527,0-.738-.562-.773-.984Z" transform="translate(-223.561 -98.238)"/>
        <path id="Path_14" data-name="Path 14" class="cls-5" d="M328.911,106.846c-1.019,1.265-3.022,3.3-4.743,3.3-1.335,0-1.968-1.546-1.968-2.705,0-2.776,2.846-5.481,4.181-5.481.386,0,.984.141.984.632,0,1.124-2.249,3.162-3.2,3.795-.176.914.176,1.441,1.195,1.441,1.195,0,2.389-1.195,3.3-1.862Zm-2.178-6.289A2.068,2.068,0,0,1,328.7,98.8a.692.692,0,0,1,.738.7,2.076,2.076,0,0,1-1.827,2A.868.868,0,0,1,326.732,100.557Z" transform="translate(-238.156 -94.022)"/>
        <path id="Path_15" data-name="Path 15" class="cls-5" d="M348.149,96.449c.387,0,.984.141.984.632,0,1.124-2.249,3.162-3.2,3.795-.176.914.176,1.441,1.195,1.441,1.195,0,2.389-1.195,3.3-1.862l.211.878c-1.019,1.265-3.022,3.3-4.743,3.3-1.335,0-1.968-1.546-1.968-2.705,0-.07,0-.105.035-.141l-.035-.035a8.489,8.489,0,0,1-2.108,1.511,5.085,5.085,0,0,1,.035,1.265c-.176,2.705-3.373,5.2-5.024,5.446-1.054.176-1.335-1.968-1.335-2.705,0-1.476.984-3.268,1.581-4.568a1.886,1.886,0,0,1-.668-1.3c0-.914.6-1.159,1.265-1.511a6.96,6.96,0,0,0,2.776-3.092c.6-1.124,3.514-6.5,4.673-6.5.492,0,.562.632.562.984a6.965,6.965,0,0,1-1.195,3.162l-4.251,5.9a3.532,3.532,0,0,1,1.195,1.792l2.811-1.757C344.951,98.241,347.024,96.449,348.149,96.449Zm-7.976,7.238a3.324,3.324,0,0,1-1.616-.176,7.071,7.071,0,0,0-1.054,2.565,3.088,3.088,0,0,0,.457,2A4.989,4.989,0,0,0,340.173,103.687Zm8.292-8.643a2.068,2.068,0,0,1,1.968-1.757.692.692,0,0,1,.738.7,2.076,2.076,0,0,1-1.827,2A.868.868,0,0,1,348.465,95.043Z" transform="translate(-246.783 -88.508)"/>
        <path id="Path_16" data-name="Path 16" class="cls-5" d="M380.665,109.762c-.492.351-.914.7-.914,1.335,0,.527.562,1.23,1.722,1.23,1.722,0,3.689-1.581,5.024-2.6l.281.878c-1.37,1.476-3.935,3.724-6.078,3.724-1.757,0-2.6-1.616-2.6-3.3,0-1.9.668-2.6,2.143-3.724,1.019-.773,3.2-2,4.462-2,.7,0,1.019.351,1.019,1.054a4.066,4.066,0,0,1-2.389,2.987c-.527,0-.738-.562-.773-.984Z" transform="translate(-274.415 -98.238)"/>
      </g>
    </g>
  </g>
</svg>
