<svg xmlns="http://www.w3.org/2000/svg" viewBox="0 0 119.732 120">
  <defs>
    <style>
      .cls-1 {
        fill: #333;
      }
    </style>
  </defs>
  <g id="Marker" transform="translate(-0.572)">
    <g id="Group_1677" data-name="Group 1677" transform="translate(0.572 65.523)">
      <g id="Group_1676" data-name="Group 1676">
        <path id="Path_10950" data-name="Path 10950" class="cls-1" d="M21.817,279.566a21.309,21.309,0,0,0-13.235,4.625,1.753,1.753,0,0,0,2.186,2.741,17.549,17.549,0,0,1,11.05-3.861,17.76,17.76,0,0,1,17.74,17.74c0,13.174-13.751,25.818-17.741,29.209C17.824,326.632,4.077,314,4.077,300.811a17.715,17.715,0,0,1,2.476-9.046,1.753,1.753,0,0,0-3.014-1.79A21.225,21.225,0,0,0,.572,300.812c0,17.058,19.349,32.227,20.173,32.864a1.753,1.753,0,0,0,2.145,0c.824-.637,20.173-15.806,20.173-32.864A21.271,21.271,0,0,0,21.817,279.566Z" transform="translate(-0.572 -279.566)"/>
      </g>
    </g>
    <g id="Group_1679" data-name="Group 1679" transform="translate(12.29 77.242)">
      <g id="Group_1678" data-name="Group 1678">
        <path id="Path_10951" data-name="Path 10951" class="cls-1" d="M60.095,329.564a9.528,9.528,0,1,0,9.528,9.528A9.538,9.538,0,0,0,60.095,329.564Zm0,15.55a6.022,6.022,0,1,1,6.022-6.022A6.029,6.029,0,0,1,60.095,345.114Z" transform="translate(-50.567 -329.564)"/>
      </g>
    </g>
    <g id="Group_1681" data-name="Group 1681" transform="translate(79.833 26.168)">
      <g id="Group_1680" data-name="Group 1680">
        <path id="Path_10952" data-name="Path 10952" class="cls-1" d="M358.988,111.652a20.258,20.258,0,0,0-20.236,20.236c0,6.869,3.247,14.23,9.65,21.878a68.434,68.434,0,0,0,9.513,9.355,1.753,1.753,0,0,0,2.145,0,68.593,68.593,0,0,0,11.123-11.362,1.753,1.753,0,0,0-2.78-2.135,67.335,67.335,0,0,1-9.414,9.84c-3.849-3.28-16.731-15.187-16.731-27.576a16.73,16.73,0,0,1,33.459,0,25.113,25.113,0,0,1-3.558,12.071,1.753,1.753,0,0,0,3.064,1.7,28.538,28.538,0,0,0,4-13.774A20.258,20.258,0,0,0,358.988,111.652Z" transform="translate(-338.752 -111.652)"/>
      </g>
    </g>
    <g id="Group_1683" data-name="Group 1683" transform="translate(90.944 37.279)">
      <g id="Group_1682" data-name="Group 1682">
        <path id="Path_10953" data-name="Path 10953" class="cls-1" d="M395.283,159.058a9.124,9.124,0,1,0,9.124,9.124A9.135,9.135,0,0,0,395.283,159.058Zm0,14.743a5.619,5.619,0,1,1,5.619-5.619A5.625,5.625,0,0,1,395.283,173.8Z" transform="translate(-386.159 -159.058)"/>
      </g>
    </g>
    <g id="Group_1685" data-name="Group 1685" transform="translate(19.413 10.121)">
      <g id="Group_1684" data-name="Group 1684">
        <path id="Path_10954" data-name="Path 10954" class="cls-1" d="M89.429,43.181A8.468,8.468,0,1,0,97.9,51.649,8.477,8.477,0,0,0,89.429,43.181Zm0,13.43a4.962,4.962,0,1,1,4.962-4.962A4.967,4.967,0,0,1,89.428,56.611Z" transform="translate(-80.961 -43.181)"/>
      </g>
    </g>
    <g id="Group_1687" data-name="Group 1687" transform="translate(9.292)">
      <g id="Group_1686" data-name="Group 1686">
        <path id="Path_10955" data-name="Path 10955" class="cls-1" d="M56.367,0A18.609,18.609,0,0,0,37.779,18.589a24.418,24.418,0,0,0,2.367,10.057A1.753,1.753,0,1,0,43.339,27.2a20.962,20.962,0,0,1-2.054-8.609,15.083,15.083,0,1,1,30.166,0C71.45,29.7,59.976,40.41,56.366,43.5a59.684,59.684,0,0,1-9.654-10.489,1.753,1.753,0,0,0-2.869,2.014A62.057,62.057,0,0,0,55.295,47.162a1.753,1.753,0,0,0,2.145,0,62.529,62.529,0,0,0,8.689-8.545c5.857-7,8.827-13.734,8.827-20.028A18.61,18.61,0,0,0,56.367,0Z" transform="translate(-37.779)"/>
      </g>
    </g>
    <g id="Group_1689" data-name="Group 1689" transform="translate(46.874 54.114)">
      <g id="Group_1688" data-name="Group 1688">
        <path id="Path_10956" data-name="Path 10956" class="cls-1" d="M202.725,231.967l-2.141-.936a1.753,1.753,0,0,0-1.4,3.212l2.141.936a1.753,1.753,0,1,0,1.4-3.212Z" transform="translate(-198.128 -230.884)"/>
      </g>
    </g>
    <g id="Group_1691" data-name="Group 1691" transform="translate(81.138 69.092)">
      <g id="Group_1690" data-name="Group 1690">
        <path id="Path_10957" data-name="Path 10957" class="cls-1" d="M348.918,295.875l-2.141-.936a1.753,1.753,0,1,0-1.4,3.212l2.141.936a1.753,1.753,0,1,0,1.4-3.212Z" transform="translate(-344.321 -294.791)"/>
      </g>
    </g>
    <g id="Group_1693" data-name="Group 1693" transform="translate(38.308 50.369)">
      <g id="Group_1692" data-name="Group 1692">
        <path id="Path_10958" data-name="Path 10958" class="cls-1" d="M166.176,215.991l-2.141-.936a1.753,1.753,0,0,0-1.4,3.212l2.141.936a1.753,1.753,0,1,0,1.4-3.212Z" transform="translate(-161.579 -214.908)"/>
      </g>
    </g>
    <g id="Group_1695" data-name="Group 1695" transform="translate(29.742 46.624)">
      <g id="Group_1694" data-name="Group 1694">
        <path id="Path_10959" data-name="Path 10959" class="cls-1" d="M129.628,200.014l-2.141-.936a1.753,1.753,0,1,0-1.4,3.212l2.141.936a1.753,1.753,0,1,0,1.4-3.212Z" transform="translate(-125.031 -198.931)"/>
      </g>
    </g>
    <g id="Group_1697" data-name="Group 1697" transform="translate(89.704 72.836)">
      <g id="Group_1696" data-name="Group 1696">
        <path id="Path_10960" data-name="Path 10960" class="cls-1" d="M385.466,311.851l-2.141-.936a1.753,1.753,0,1,0-1.4,3.212l2.141.936a1.753,1.753,0,1,0,1.4-3.212Z" transform="translate(-380.869 -310.767)"/>
      </g>
    </g>
    <g id="Group_1699" data-name="Group 1699" transform="translate(72.572 65.347)">
      <g id="Group_1698" data-name="Group 1698">
        <path id="Path_10961" data-name="Path 10961" class="cls-1" d="M312.37,279.9l-2.142-.936a1.753,1.753,0,1,0-1.4,3.212l2.142.936a1.753,1.753,0,1,0,1.4-3.212Z" transform="translate(-307.773 -278.814)"/>
      </g>
    </g>
    <g id="Group_1701" data-name="Group 1701" transform="translate(64.006 61.603)">
      <g id="Group_1700" data-name="Group 1700">
        <path id="Path_10962" data-name="Path 10962" class="cls-1" d="M275.82,263.921l-2.142-.936a1.753,1.753,0,0,0-1.4,3.212l2.141.936a1.753,1.753,0,1,0,1.4-3.212Z" transform="translate(-271.223 -262.838)"/>
      </g>
    </g>
    <g id="Group_1703" data-name="Group 1703" transform="translate(55.44 57.858)">
      <g id="Group_1702" data-name="Group 1702">
        <path id="Path_10963" data-name="Path 10963" class="cls-1" d="M239.272,247.943l-2.141-.936a1.753,1.753,0,1,0-1.4,3.212l2.141.936a1.753,1.753,0,1,0,1.4-3.212Z" transform="translate(-234.675 -246.86)"/>
      </g>
    </g>
    <g id="Group_1705" data-name="Group 1705" transform="translate(27.045 114.165)">
      <g id="Group_1704" data-name="Group 1704">
        <path id="Path_10964" data-name="Path 10964" class="cls-1" d="M118.884,488.031a1.753,1.753,0,0,0-2.371-.723l-2.063,1.1A1.753,1.753,0,1,0,116.1,491.5l2.063-1.1A1.753,1.753,0,0,0,118.884,488.031Z" transform="translate(-113.521 -487.102)"/>
      </g>
    </g>
    <g id="Group_1707" data-name="Group 1707" transform="translate(35.294 109.768)">
      <g id="Group_1706" data-name="Group 1706">
        <path id="Path_10965" data-name="Path 10965" class="cls-1" d="M154.083,469.27a1.753,1.753,0,0,0-2.371-.723l-2.062,1.1a1.753,1.753,0,1,0,1.649,3.094l2.063-1.1A1.754,1.754,0,0,0,154.083,469.27Z" transform="translate(-148.72 -468.341)"/>
      </g>
    </g>
    <g id="Group_1709" data-name="Group 1709" transform="translate(43.544 105.37)">
      <g id="Group_1708" data-name="Group 1708">
        <path id="Path_10966" data-name="Path 10966" class="cls-1" d="M189.283,450.508a1.752,1.752,0,0,0-2.371-.723l-2.063,1.1a1.753,1.753,0,1,0,1.649,3.094l2.062-1.1A1.754,1.754,0,0,0,189.283,450.508Z" transform="translate(-183.92 -449.579)"/>
      </g>
    </g>
    <g id="Group_1711" data-name="Group 1711" transform="translate(84.794 83.384)">
      <g id="Group_1710" data-name="Group 1710">
        <path id="Path_10967" data-name="Path 10967" class="cls-1" d="M365.282,356.7a1.753,1.753,0,0,0-2.372-.723l-2.062,1.1a1.753,1.753,0,1,0,1.649,3.094l2.063-1.1A1.754,1.754,0,0,0,365.282,356.7Z" transform="translate(-359.919 -355.77)"/>
      </g>
    </g>
    <g id="Group_1713" data-name="Group 1713" transform="translate(93.044 78.987)">
      <g id="Group_1712" data-name="Group 1712">
        <path id="Path_10968" data-name="Path 10968" class="cls-1" d="M400.482,337.938a1.753,1.753,0,0,0-2.372-.723l-2.062,1.1a1.753,1.753,0,1,0,1.649,3.094l2.063-1.1A1.753,1.753,0,0,0,400.482,337.938Z" transform="translate(-395.119 -337.009)"/>
      </g>
    </g>
    <g id="Group_1715" data-name="Group 1715" transform="translate(76.544 87.781)">
      <g id="Group_1714" data-name="Group 1714">
        <path id="Path_10969" data-name="Path 10969" class="cls-1" d="M330.083,375.461a1.751,1.751,0,0,0-2.371-.722l-2.062,1.1a1.753,1.753,0,1,0,1.649,3.094l2.062-1.1A1.753,1.753,0,0,0,330.083,375.461Z" transform="translate(-324.72 -374.531)"/>
      </g>
    </g>
    <g id="Group_1717" data-name="Group 1717" transform="translate(51.794 100.973)">
      <g id="Group_1716" data-name="Group 1716">
        <path id="Path_10970" data-name="Path 10970" class="cls-1" d="M224.482,431.746a1.753,1.753,0,0,0-2.371-.723l-2.063,1.1a1.753,1.753,0,1,0,1.649,3.094l2.062-1.1A1.753,1.753,0,0,0,224.482,431.746Z" transform="translate(-219.119 -430.817)"/>
      </g>
    </g>
    <g id="Group_1719" data-name="Group 1719" transform="translate(68.295 92.178)">
      <g id="Group_1718" data-name="Group 1718">
        <path id="Path_10971" data-name="Path 10971" class="cls-1" d="M294.884,394.222a1.752,1.752,0,0,0-2.371-.722l-2.062,1.1a1.753,1.753,0,1,0,1.649,3.094l2.062-1.1A1.753,1.753,0,0,0,294.884,394.222Z" transform="translate(-289.521 -393.293)"/>
      </g>
    </g>
    <g id="Group_1721" data-name="Group 1721" transform="translate(60.044 96.575)">
      <g id="Group_1720" data-name="Group 1720">
        <path id="Path_10972" data-name="Path 10972" class="cls-1" d="M259.683,412.984a1.752,1.752,0,0,0-2.371-.723l-2.062,1.1a1.753,1.753,0,1,0,1.649,3.094l2.062-1.1A1.753,1.753,0,0,0,259.683,412.984Z" transform="translate(-254.32 -412.055)"/>
      </g>
    </g>
  </g>
</svg>
