<svg xmlns="http://www.w3.org/2000/svg" viewBox="0 0 163.462 120">
  <defs>
    <style>
      .cls-1 {
        fill: #333;
      }
    </style>
  </defs>
  <g id="staff" transform="translate(0 -68.066)">
    <g id="Group_10" data-name="Group 10" transform="translate(125.39 119.27)">
      <g id="Group_9" data-name="Group 9">
        <path id="Path_53" data-name="Path 53" class="cls-1" d="M411.578,231.262c-5.562-2.781-15.991-2.813-16.432-2.813a2.394,2.394,0,0,0,0,4.789c2.691,0,10.5.415,14.29,2.308a2.395,2.395,0,0,0,2.142-4.284Z" transform="translate(-392.751 -228.449)"/>
      </g>
    </g>
    <g id="Group_12" data-name="Group 12" transform="translate(0 68.066)">
      <g id="Group_11" data-name="Group 11" transform="translate(0 0)">
        <path id="Path_54" data-name="Path 54" class="cls-1" d="M156.155,156.174l-9.889-2.825a1,1,0,0,1-.725-.961v-3.3a18,18,0,0,0,2.289-1.878,17.615,17.615,0,0,0,5.391-12.743v-4.555l.956-1.912a15.276,15.276,0,0,0,1.6-6.8V108.864a2.4,2.4,0,0,0-2.394-2.394H130.345a15.213,15.213,0,0,0-15.2,15.2v.143a12.7,12.7,0,0,0,1.334,5.651l1.226,2.453v3.911a18.683,18.683,0,0,0,7.681,15.106v3.46c0,.533,0,.754-1.977,1.319l-4.825,1.379-13.958-5.076a2.392,2.392,0,0,0-.653-1.833l-4.46-4.686v-7.867c.472-.389.936-.788,1.387-1.21a28.1,28.1,0,0,0,8.854-20.43V107.7a27.678,27.678,0,0,0,2.56-11.639V70.46a2.4,2.4,0,0,0-2.394-2.394H74.081A22.9,22.9,0,0,0,51.2,90.942v5.121a27.678,27.678,0,0,0,2.56,11.639v5.405a29.258,29.258,0,0,0,10.241,22.331v8.052l-4.46,4.686a2.392,2.392,0,0,0-.653,1.833L44.16,155.367a12.556,12.556,0,0,0-2.96,1.551l-2.313-1.157c6.886-3,9.068-7.213,9.173-7.423a2.394,2.394,0,0,0,0-2.142c-1.726-3.452-1.935-9.781-2.1-14.865-.056-1.693-.109-3.292-.21-4.716-.816-11.485-9.548-20.146-20.31-20.146S5.942,115.13,5.126,126.615c-.1,1.424-.154,3.023-.21,4.716-.168,5.084-.377,11.412-2.1,14.864a2.394,2.394,0,0,0,0,2.142c.1.209,2.282,4.417,9.182,7.418l-6.426,3.213A10.023,10.023,0,0,0,0,167.98v17.69a2.394,2.394,0,0,0,4.789,0V167.98a5.258,5.258,0,0,1,2.922-4.728l8-4L18.5,161.9a10.07,10.07,0,0,0,13.881,0l2.783-2.645,2.609,1.3a12.609,12.609,0,0,0-1.926,6.685v18.429a2.394,2.394,0,0,0,4.789,0V167.241a7.87,7.87,0,0,1,5.165-7.374l15.533-5.648,6.466,9.7A4.936,4.936,0,0,0,71.43,166.1q.248.024.494.024a4.935,4.935,0,0,0,3.5-1.451l3.945-3.945v24.942a2.394,2.394,0,1,0,4.789,0V160.729l3.945,3.945a4.933,4.933,0,0,0,3.5,1.452q.246,0,.494-.024a4.937,4.937,0,0,0,3.634-2.182l6.466-9.7,15.532,5.648a7.871,7.871,0,0,1,5.165,7.374v18.429a2.394,2.394,0,1,0,4.789,0V167.242a12.658,12.658,0,0,0-3.542-8.761l.592-.169a13.13,13.13,0,0,0,2.228-.8l6.114,6.114v22.05a2.394,2.394,0,1,0,4.789,0v-22.05l6.071-6.071a5.7,5.7,0,0,0,1.019.4l9.889,2.825a5.309,5.309,0,0,1,3.834,5.083v19.808a2.394,2.394,0,0,0,4.789,0V165.863A10.119,10.119,0,0,0,156.155,156.174ZM15.361,151.945a17.214,17.214,0,0,1-7.685-4.934,26.394,26.394,0,0,0,1.365-5.734,17.855,17.855,0,0,0,6.32,7.8Zm13.717,6.48a5.284,5.284,0,0,1-7.283,0l-2.227-2.116a4.954,4.954,0,0,0,.582-2.338v-2.552a17.805,17.805,0,0,0,10.572,0v2.55a4.954,4.954,0,0,0,.582,2.339Zm-3.641-10.992a12.981,12.981,0,0,1-12.967-12.967,2.38,2.38,0,0,0-2.787-2.359c.007-.206.014-.412.021-.616.053-1.646.1-3.2.2-4.535a17.777,17.777,0,0,1,4.841-11.164,14.877,14.877,0,0,1,21.385,0,17.777,17.777,0,0,1,4.841,11.164c.095,1.334.146,2.888.2,4.534l.014.427a21.515,21.515,0,0,0-11.827-8.642,30.052,30.052,0,0,0-9.108-1.443,2.4,2.4,0,0,0-1.657.731l-4.32,4.481a2.395,2.395,0,0,0,3.447,3.324l3.595-3.728c3.1.151,13.056,1.31,16.929,9.839A12.936,12.936,0,0,1,25.438,147.433Zm10.074,4.52V149.1a17.712,17.712,0,0,0,6.322-7.806,26.36,26.36,0,0,0,1.363,5.721A17.3,17.3,0,0,1,35.511,151.953Zm23.042-38.846v-5.941a2.4,2.4,0,0,0-.238-1.041,22.968,22.968,0,0,1-2.322-10.062v-5.12A18.108,18.108,0,0,1,74.081,72.855h33.449V96.063a22.968,22.968,0,0,1-2.322,10.062,2.4,2.4,0,0,0-.238,1.041v6.818a22.988,22.988,0,0,1-7.34,16.936,23.824,23.824,0,0,1-1.838,1.556l-.041.03a23.023,23.023,0,0,1-15.538,4.635C68.067,136.356,58.554,125.8,58.554,113.107Zm13.482,48.18a.15.15,0,0,1-.133.048.152.152,0,0,1-.122-.073l-7.447-11.17,2.4-2.518,11.3,7.722Zm9.726-9.24-12.967-8.863v-4.47A26.96,26.96,0,0,0,79.9,141.921q.947.061,1.884.061a27.735,27.735,0,0,0,12.942-3.172v4.374Zm9.981,9.215a.152.152,0,0,1-.122.073.148.148,0,0,1-.133-.048L85.5,155.3l11.3-7.722,2.4,2.518Zm43.723-2.02-5.434-5.434a6.57,6.57,0,0,0,.148-1.422v-1.01a16.79,16.79,0,0,0,4.742.838c.185.006.367.008.551.008a17.786,17.786,0,0,0,5.279-.8v.964a5.724,5.724,0,0,0,.173,1.4Zm9.03-15.469a12.869,12.869,0,0,1-9.43,3.654c-6.929-.208-12.566-6.311-12.566-13.6v-4.476a2.392,2.392,0,0,0-.253-1.071l-1.479-2.958a7.888,7.888,0,0,1-.828-3.509v-.143a10.418,10.418,0,0,1,10.407-10.407h20.648V121.2a10.462,10.462,0,0,1-1.1,4.654l-1.209,2.417a2.393,2.393,0,0,0-.253,1.071v5.12A12.865,12.865,0,0,1,144.5,143.773Z" transform="translate(0 -68.066)"/>
      </g>
    </g>
    <g id="Group_14" data-name="Group 14" transform="translate(148.432 167.914)">
      <g id="Group_13" data-name="Group 13">
        <path id="Path_55" data-name="Path 55" class="cls-1" d="M467.318,380.814a2.394,2.394,0,0,0-2.394,2.395V398.57a2.394,2.394,0,1,0,4.789,0V383.209A2.4,2.4,0,0,0,467.318,380.814Z" transform="translate(-464.923 -380.814)"/>
      </g>
    </g>
    <g id="Group_16" data-name="Group 16" transform="translate(10.241 171.08)">
      <g id="Group_15" data-name="Group 15">
        <path id="Path_56" data-name="Path 56" class="cls-1" d="M34.471,390.728a2.394,2.394,0,0,0-2.394,2.394v12.2a2.394,2.394,0,1,0,4.789,0v-12.2A2.4,2.4,0,0,0,34.471,390.728Z" transform="translate(-32.077 -390.728)"/>
      </g>
    </g>
    <g id="Group_18" data-name="Group 18" transform="translate(61.445 89.819)">
      <g id="Group_17" data-name="Group 17" transform="translate(0 0)">
        <path id="Path_57" data-name="Path 57" class="cls-1" d="M232.391,143.313c-9.056-9.056-28-7.325-35.731-6.16a4.916,4.916,0,0,0-4.2,4.9v5.516a2.394,2.394,0,1,0,4.789,0V142.05a.158.158,0,0,1,.125-.162,75.646,75.646,0,0,1,15.556-.76c7.467.5,12.875,2.371,16.075,5.571a2.394,2.394,0,0,0,3.386-3.386Z" transform="translate(-192.46 -136.203)"/>
      </g>
    </g>
    <g id="Group_20" data-name="Group 20" transform="translate(51.204 173.035)">
      <g id="Group_19" data-name="Group 19">
        <path id="Path_58" data-name="Path 58" class="cls-1" d="M162.779,396.853a2.4,2.4,0,0,0-2.394,2.395v10.241a2.394,2.394,0,1,0,4.789,0V399.248A2.4,2.4,0,0,0,162.779,396.853Z" transform="translate(-160.384 -396.853)"/>
      </g>
    </g>
    <g id="Group_22" data-name="Group 22" transform="translate(107.529 173.035)">
      <g id="Group_21" data-name="Group 21">
        <path id="Path_59" data-name="Path 59" class="cls-1" d="M339.2,396.853a2.4,2.4,0,0,0-2.395,2.395v10.241a2.394,2.394,0,1,0,4.789,0V399.248A2.4,2.4,0,0,0,339.2,396.853Z" transform="translate(-336.806 -396.853)"/>
      </g>
    </g>
  </g>
</svg>
